<svg width="145" height="49" viewBox="0 0 145 49" fill="none" xmlns="http://www.w3.org/2000/svg">
<path d="M0 47.2242H52" stroke="black" stroke-width="2"/>
<g filter="url(#filter0_d)">
<path d="M7.152 23.7887C6.048 23.7887 5.056 23.5967 4.176 23.2127C3.312 22.8127 2.632 22.2687 2.136 21.5807C1.64 20.8767 1.384 20.0687 1.368 19.1567H3.696C3.776 19.9407 4.096 20.6047 4.656 21.1487C5.232 21.6767 6.064 21.9407 7.152 21.9407C8.192 21.9407 9.008 21.6847 9.6 21.1727C10.208 20.6447 10.512 19.9727 10.512 19.1567C10.512 18.5167 10.336 17.9967 9.984 17.5967C9.632 17.1967 9.192 16.8927 8.664 16.6847C8.136 16.4767 7.424 16.2527 6.528 16.0127C5.424 15.7247 4.536 15.4367 3.864 15.1487C3.208 14.8607 2.64 14.4127 2.16 13.8047C1.696 13.1807 1.464 12.3487 1.464 11.3087C1.464 10.3967 1.696 9.5887 2.16 8.8847C2.624 8.1807 3.272 7.6367 4.104 7.2527C4.952 6.8687 5.92 6.6767 7.008 6.6767C8.576 6.6767 9.856 7.0687 10.848 7.8527C11.856 8.6367 12.424 9.6767 12.552 10.9727H10.152C10.072 10.3327 9.736 9.7727 9.144 9.2927C8.552 8.7967 7.768 8.5487 6.792 8.5487C5.88 8.5487 5.136 8.7887 4.56 9.2687C3.984 9.7327 3.696 10.3887 3.696 11.2367C3.696 11.8447 3.864 12.3407 4.2 12.7247C4.552 13.1087 4.976 13.4047 5.472 13.6127C5.984 13.8047 6.696 14.0287 7.608 14.2847C8.712 14.5887 9.6 14.8927 10.272 15.1967C10.944 15.4847 11.52 15.9407 12 16.5647C12.48 17.1727 12.72 18.0047 12.72 19.0607C12.72 19.8767 12.504 20.6447 12.072 21.3647C11.64 22.0847 11 22.6687 10.152 23.1167C9.304 23.5647 8.304 23.7887 7.152 23.7887ZM27.9339 16.5407C27.9339 16.9567 27.9099 17.3967 27.8619 17.8607H17.3499C17.4299 19.1567 17.8699 20.1727 18.6699 20.9087C19.4859 21.6287 20.4699 21.9887 21.6219 21.9887C22.5659 21.9887 23.3499 21.7727 23.9739 21.3407C24.6139 20.8927 25.0619 20.3007 25.3179 19.5647H27.6699C27.3179 20.8287 26.6139 21.8607 25.5579 22.6607C24.5019 23.4447 23.1899 23.8367 21.6219 23.8367C20.3739 23.8367 19.2539 23.5567 18.2619 22.9967C17.2859 22.4367 16.5179 21.6447 15.9579 20.6207C15.3979 19.5807 15.1179 18.3807 15.1179 17.0207C15.1179 15.6607 15.3899 14.4687 15.9339 13.4447C16.4779 12.4207 17.2379 11.6367 18.2139 11.0927C19.2059 10.5327 20.3419 10.2527 21.6219 10.2527C22.8699 10.2527 23.9739 10.5247 24.9339 11.0687C25.8939 11.6127 26.6299 12.3647 27.1419 13.3247C27.6699 14.2687 27.9339 15.3407 27.9339 16.5407ZM25.6779 16.0847C25.6779 15.2527 25.4939 14.5407 25.1259 13.9487C24.7579 13.3407 24.2539 12.8847 23.6139 12.5807C22.9899 12.2607 22.2939 12.1007 21.5259 12.1007C20.4219 12.1007 19.4779 12.4527 18.6939 13.1567C17.9259 13.8607 17.4859 14.8367 17.3739 16.0847H25.6779ZM35.7128 21.6047L39.7928 10.4687H42.1208L36.9608 23.6207H34.4168L29.2568 10.4687H31.6088L35.7128 21.6047ZM56.2699 16.5407C56.2699 16.9567 56.2459 17.3967 56.1979 17.8607H45.6859C45.7659 19.1567 46.2059 20.1727 47.0059 20.9087C47.8219 21.6287 48.8059 21.9887 49.9579 21.9887C50.9019 21.9887 51.6859 21.7727 52.3099 21.3407C52.9499 20.8927 53.3979 20.3007 53.6539 19.5647H56.0059C55.6539 20.8287 54.9499 21.8607 53.8939 22.6607C52.8379 23.4447 51.5259 23.8367 49.9579 23.8367C48.7099 23.8367 47.5899 23.5567 46.5979 22.9967C45.6219 22.4367 44.8539 21.6447 44.2939 20.6207C43.7339 19.5807 43.4539 18.3807 43.4539 17.0207C43.4539 15.6607 43.7259 14.4687 44.2699 13.4447C44.8139 12.4207 45.5739 11.6367 46.5499 11.0927C47.5419 10.5327 48.6779 10.2527 49.9579 10.2527C51.2059 10.2527 52.3099 10.5247 53.2699 11.0687C54.2299 11.6127 54.9659 12.3647 55.4779 13.3247C56.0059 14.2687 56.2699 15.3407 56.2699 16.5407ZM54.0139 16.0847C54.0139 15.2527 53.8299 14.5407 53.4619 13.9487C53.0939 13.3407 52.5899 12.8847 51.9499 12.5807C51.3259 12.2607 50.6299 12.1007 49.8619 12.1007C48.7579 12.1007 47.8139 12.4527 47.0299 13.1567C46.2619 13.8607 45.8219 14.8367 45.7099 16.0847H54.0139ZM65.5607 10.2287C67.1607 10.2287 68.4567 10.7167 69.4487 11.6927C70.4407 12.6527 70.9367 14.0447 70.9367 15.8687V23.6207H68.7767V16.1807C68.7767 14.8687 68.4487 13.8687 67.7927 13.1807C67.1367 12.4767 66.2407 12.1247 65.1047 12.1247C63.9527 12.1247 63.0327 12.4847 62.3447 13.2047C61.6727 13.9247 61.3367 14.9727 61.3367 16.3487V23.6207H59.1527V10.4687H61.3367V12.3407C61.7687 11.6687 62.3527 11.1487 63.0887 10.7807C63.8407 10.4127 64.6647 10.2287 65.5607 10.2287ZM79.7122 6.8927C81.5363 6.8927 83.1123 7.2367 84.4403 7.9247C85.7843 8.5967 86.8083 9.5647 87.5123 10.8287C88.2323 12.0927 88.5923 13.5807 88.5923 15.2927C88.5923 17.0047 88.2323 18.4927 87.5123 19.7567C86.8083 21.0047 85.7843 21.9647 84.4403 22.6367C83.1123 23.2927 81.5363 23.6207 79.7122 23.6207H74.5043V6.8927H79.7122ZM79.7122 21.8207C81.8723 21.8207 83.5203 21.2527 84.6562 20.1167C85.7923 18.9647 86.3603 17.3567 86.3603 15.2927C86.3603 13.2127 85.7843 11.5887 84.6323 10.4207C83.4963 9.2527 81.8563 8.6687 79.7122 8.6687H76.6883V21.8207H79.7122ZM103.473 16.5407C103.473 16.9567 103.449 17.3967 103.401 17.8607H92.889C92.969 19.1567 93.409 20.1727 94.209 20.9087C95.025 21.6287 96.009 21.9887 97.161 21.9887C98.105 21.9887 98.889 21.7727 99.513 21.3407C100.153 20.8927 100.601 20.3007 100.857 19.5647H103.209C102.857 20.8287 102.153 21.8607 101.097 22.6607C100.041 23.4447 98.729 23.8367 97.161 23.8367C95.913 23.8367 94.793 23.5567 93.801 22.9967C92.825 22.4367 92.057 21.6447 91.497 20.6207C90.937 19.5807 90.657 18.3807 90.657 17.0207C90.657 15.6607 90.929 14.4687 91.473 13.4447C92.017 12.4207 92.777 11.6367 93.753 11.0927C94.745 10.5327 95.881 10.2527 97.161 10.2527C98.409 10.2527 99.513 10.5247 100.473 11.0687C101.433 11.6127 102.169 12.3647 102.681 13.3247C103.209 14.2687 103.473 15.3407 103.473 16.5407ZM101.217 16.0847C101.217 15.2527 101.033 14.5407 100.665 13.9487C100.297 13.3407 99.793 12.8847 99.153 12.5807C98.529 12.2607 97.833 12.1007 97.065 12.1007C95.961 12.1007 95.017 12.4527 94.233 13.1567C93.465 13.8607 93.025 14.8367 92.913 16.0847H101.217ZM111.252 21.6047L115.332 10.4687H117.66L112.5 23.6207H109.956L104.796 10.4687H107.148L111.252 21.6047ZM120.571 22.2707H125.413V23.6207H118.699V22.2707L123.487 15.0887H118.735V13.7567H125.377V15.0887L120.571 22.2707Z" fill="white"/>
</g>
<defs>
<filter id="filter0_d" x="1.36801" y="6.6767" width="136.045" height="29.16" filterUnits="userSpaceOnUse" color-interpolation-filters="sRGB">
<feFlood flood-opacity="0" result="BackgroundImageFix"/>
<feColorMatrix in="SourceAlpha" type="matrix" values="0 0 0 0 0 0 0 0 0 0 0 0 0 0 0 0 0 0 127 0" result="hardAlpha"/>
<feOffset dx="10" dy="10"/>
<feGaussianBlur stdDeviation="1"/>
<feColorMatrix type="matrix" values="0 0 0 0 0 0 0 0 0 0 0 0 0 0 0 0 0 0 1 0"/>
<feBlend mode="normal" in2="BackgroundImageFix" result="effect1_dropShadow"/>
<feBlend mode="normal" in="SourceGraphic" in2="effect1_dropShadow" result="shape"/>
</filter>
</defs>
</svg>
