<svg width="1240" height="274" viewBox="0 0 1240 274" fill="none" xmlns="http://www.w3.org/2000/svg">
<path d="M-596.083 219.299L-534.91 191.948C-473.736 164.597 -351.389 109.896 -229.042 64.254C-106.694 19.2962 15.6528 -18.311 138 9.55253C260.347 36.3904 382.694 128.699 505.042 155.537C627.389 183.401 749.736 145.793 872.083 155.537C994.431 164.597 1116.78 219.299 1177.95 246.649L1239.12 274H1177.95C1116.78 274 994.431 274 872.083 274C749.736 274 627.389 274 505.042 274C382.694 274 260.347 274 138 274C15.6528 274 -106.694 274 -229.042 274C-351.389 274 -473.736 274 -534.91 274H-596.083V219.299Z" fill="#6D06BF"/>
</svg>
