<svg width="1380" height="274" viewBox="0 0 1380 274" fill="none" xmlns="http://www.w3.org/2000/svg">
<path d="M-352.667 219.299L-291.493 191.948C-230.319 164.597 -107.972 109.896 14.375 64.254C136.722 19.2962 259.069 -18.311 381.417 9.55253C503.764 36.3904 626.111 128.699 748.458 155.537C870.806 183.401 993.153 145.793 1115.5 155.537C1237.85 164.597 1360.19 219.299 1421.37 246.649L1482.54 274H1421.37C1360.19 274 1237.85 274 1115.5 274C993.153 274 870.806 274 748.458 274C626.111 274 503.764 274 381.417 274C259.069 274 136.722 274 14.375 274C-107.972 274 -230.319 274 -291.493 274H-352.667V219.299Z" fill="#6D06BF" fill-opacity="0.1"/>
</svg>
