<svg width="587" height="284" viewBox="0 0 587 284" fill="none" xmlns="http://www.w3.org/2000/svg">
<path d="M36.1987 266C3.48887 237.707 -12.2636 189.309 23.0394 156.781C31.7755 148.739 42.3485 142.747 53.658 138.476C54.1075 138.323 54.5505 138.153 55 138" stroke="black" stroke-width="4.23" stroke-miterlimit="10"/>
<path d="M243 25C275.587 27.6342 288.025 41.6323 303.621 60.0351C304.912 61.5605 306.159 63.0981 307.386 64.6357C321.335 82.089 331.777 109.583 359.979 106.164C382.013 103.487 400.877 90.2795 420.619 81.7275C453.16 67.6375 492.302 53.7191 527.284 68.6483C564.779 84.6435 583.255 128.255 583.978 165.042C584.682 202.025 568.137 249.313 530.197 266" stroke="black" stroke-width="4.23" stroke-miterlimit="10"/>
<path d="M265.97 97.4186C265.529 113.942 259.666 129.924 249.196 143.137C249.172 143.158 249.152 143.183 249.137 143.211C248.146 144.225 247.136 145.238 246.106 146.215C237.886 154.042 228.116 160.25 217.356 164.483C206.597 168.715 195.061 170.888 183.413 170.877H183.174C169.728 170.877 156.289 170.92 142.864 170.92C132.268 170.92 121.549 171.534 111.057 170.079C107.683 169.618 104.497 168.604 101.045 168.752C87.8842 169.329 78.8429 181.141 72.606 190.693C72.5244 190.817 72.4136 190.922 72.2822 191C72.2355 190.891 72.2135 190.773 72.2174 190.656C73.0464 176.258 69.7563 161.368 62.1852 148.825C62.0492 148.58 61.9067 148.346 61.7642 148.119C57.548 141.362 51.9329 135.558 48.3189 128.463C42.0652 116.129 39.2576 102.478 40.1676 88.8197C41.0769 75.1612 45.6726 61.9535 53.5131 50.464C61.3536 38.975 72.1759 29.5898 84.9419 23.2089C97.7078 16.8287 111.989 13.6672 126.413 14.0277L184.119 15.5019C206.426 16.0725 227.581 25.0228 242.93 40.3847C258.28 55.7465 266.567 76.2619 265.97 97.4186Z" fill="#930BFF"/>
<path d="M272 86.8933C272.032 107.672 263.884 127.717 249.146 143.114C249.122 143.135 249.102 143.16 249.088 143.188C248.097 144.199 247.088 145.21 246.059 146.184C237.844 153.992 228.079 160.185 217.327 164.408C206.575 168.63 195.047 170.798 183.406 170.787H183.167C169.73 170.787 156.3 170.83 142.883 170.83C132.294 170.83 121.582 171.442 111.097 169.99C107.725 169.53 104.541 168.519 101.091 168.666C87.9389 169.242 78.9035 181.026 72.6706 190.554C72.5884 190.678 72.4777 190.783 72.347 190.861C72.1988 190.948 72.0279 190.996 71.8532 191C71.6784 191.003 71.5062 190.961 71.3548 190.879C71.2033 190.796 71.0784 190.676 70.993 190.532C70.9075 190.387 70.8655 190.223 70.8713 190.058C71.3179 174.892 67.4021 159.353 59.0528 146.362C58.9104 146.117 58.7486 145.866 58.5867 145.639C53.9461 138.666 47.875 132.71 43.8621 125.356C36.8933 112.568 33.5166 98.2974 34.0558 83.9171C34.5951 69.5362 39.0325 55.5284 46.941 43.2401C54.8496 30.9518 65.9646 20.7958 79.2161 13.7491C92.4683 6.70169 107.412 3 122.611 3H183.406C195.042 3.00061 206.564 5.17101 217.313 9.38804C228.062 13.6045 237.83 19.7842 246.056 27.5742C254.283 35.3649 260.809 44.6127 265.26 54.7907C269.711 64.9687 272.002 75.8771 272 86.8933Z" stroke="black" stroke-width="4.23" stroke-miterlimit="10"/>
<path d="M218.63 42H168.37C159.881 42 153 48.5584 153 56.6482V121.351C153 129.442 159.881 136 168.37 136H218.63C227.118 136 234 129.442 234 121.351V56.6482C234 48.5584 227.118 42 218.63 42Z" fill="#6D06BF"/>
<path d="M194 68C197.314 68 200 65.3137 200 62C200 58.6863 197.314 56 194 56C190.686 56 188 58.6863 188 62C188 65.3137 190.686 68 194 68Z" fill="#F8F8F8"/>
<path d="M177 89C177 84.4909 178.792 80.1673 181.979 76.9788C185.167 73.7909 189.491 72 194 72C198.509 72 202.833 73.7909 206.021 76.9788C209.209 80.1673 211 84.4909 211 89H177Z" fill="#F8F8F8"/>
<path d="M209.013 103H177.987C173.576 103 170 106.415 170 110.629V114.371C170 118.584 173.576 122 177.987 122H209.013C213.425 122 217 118.584 217 114.371V110.629C217 106.415 213.425 103 209.013 103Z" fill="#930BFF"/>
<path d="M128 72H79" stroke="#F8F8F8" stroke-width="4.23" stroke-linecap="round" stroke-linejoin="round"/>
<path d="M128 83H79" stroke="#F8F8F8" stroke-width="4.23" stroke-linecap="round" stroke-linejoin="round"/>
<path d="M128 92H79" stroke="#F8F8F8" stroke-width="4.23" stroke-linecap="round" stroke-linejoin="round"/>
<path d="M128 103H79" stroke="#F8F8F8" stroke-width="4.23" stroke-linecap="round" stroke-linejoin="round"/>
<path d="M128 62H79" stroke="#F8F8F8" stroke-width="4.23" stroke-linecap="round" stroke-linejoin="round"/>
<path d="M128 113H79" stroke="#F8F8F8" stroke-width="4.23" stroke-linecap="round" stroke-linejoin="round"/>
<path d="M141.402 183.842C141.402 183.842 118.734 181.739 121.185 159.654C123.636 137.568 128.092 138.566 148.452 129.381C148.452 129.381 165.079 129.307 169.716 134.089C174.353 138.87 177.043 129.4 177.043 129.4C177.043 129.4 198.709 103.264 225.755 108.759C252.801 114.254 204.646 135.056 204.646 135.056C204.646 135.056 173.571 135.465 181.609 146.524C181.609 146.524 186.285 154.841 183.595 161.768C180.904 168.696 180.937 179.81 179.158 180.133C177.38 180.455 150.844 186 150.844 186L141.402 183.842Z" fill="#F8F8F8"/>
<path d="M352.346 266H289.814C279.457 266.015 269.2 264.082 259.627 260.314C250.054 256.545 241.354 251.014 234.025 244.037C234.02 245.492 233.858 246.943 233.543 248.367V208.643C212.99 185.756 189.046 197.399 185.828 199.12C184.402 186.117 183.143 175.846 183.143 175.846C183.143 175.846 179.681 147.955 206.786 137.746C207.004 137.654 207.222 137.574 207.428 137.501C220.113 132.938 231.604 135.192 241.193 139.675C241.353 139.767 241.514 139.828 241.675 139.92C251.803 144.77 259.748 152.065 264.655 156.321C265.176 156.756 265.657 157.179 266.113 157.546C271.162 161.748 284.329 174.156 299.12 184.157L299.364 184.329C310.232 191.636 321.96 197.65 331.973 198.164C331.992 198.201 357.35 222.522 352.346 266Z" fill="#222222"/>
<path d="M347.448 194.423C341.599 196.605 336.575 197.833 331.693 197.985C329.139 198.064 326.585 197.827 324.095 197.28C316.775 195.766 309.101 191.596 298.943 184.228L298.704 184.058C289.94 177.73 279.356 169.031 265.554 157.644C265.097 157.268 264.613 156.848 264.09 156.429C262.743 155.328 261.356 154.192 259.95 153.018C254.134 148.107 247.783 143.789 241.002 140.137C240.841 140.046 240.679 139.985 240.518 139.894C239.873 139.535 239.196 139.213 238.532 138.891C237.039 138.165 235.493 137.537 233.908 137.012C230.022 135.703 225.935 135.007 221.809 134.951L219.274 135.012C186.595 135.918 179.398 143.079 179.398 143.079C182.722 147.354 184.763 152.394 185.305 157.669C182.609 157.255 179.92 158.046 179.456 160.854C178.894 164.301 178.05 167.462 174.651 169.493C172.579 170.634 170.13 171.004 167.782 170.532C167.782 170.532 167.737 170.532 167.718 170.532C167.034 170.344 166.37 170.192 165.783 170.076C165.522 170.018 165.266 169.943 165.015 169.851C158.166 167.499 154.168 168.41 155.47 175.322C156.999 183.45 145.745 184.514 138.328 183.262C125.242 177.711 121.663 156.058 132.033 142.72C132.298 142.38 132.595 142.021 132.898 141.656C133.201 141.292 133.543 140.957 133.846 140.617C134.62 139.825 135.445 139.078 136.316 138.38C136.619 138.137 136.922 137.887 137.238 137.663C137.554 137.438 138.006 137.109 138.386 136.848C138.757 136.57 139.147 136.317 139.553 136.088C143.063 133.912 147.006 132.432 151.142 131.738C155.277 131.044 159.519 131.151 163.61 132.052C166.909 133.157 170.007 134.735 172.793 136.732C172.793 136.732 173.051 136.356 173.574 135.675C174.788 136.351 175.955 137.098 177.069 137.912C177.069 137.912 196.708 109.681 225.188 110.003C227.483 110.022 229.769 110.276 232.005 110.763C254.217 118.167 269.289 144.842 282.877 148.933C283.908 149.243 284.954 149.502 286.012 149.711C296.524 151.833 308.281 149.523 318.717 148.897C325.592 148.483 332.647 148.635 339.296 150.374C340.122 150.587 340.967 150.848 341.792 151.134H341.831C351.118 154.277 360.263 161.249 362.533 170.514C365.081 180.781 356.794 190.386 347.448 194.423Z" fill="#930BFF"/>
<path d="M543 110.647C542.718 111.741 542.177 112.761 541.422 113.628C540.666 114.495 539.713 115.188 538.635 115.655L520.467 123.889L480 138L483.886 125.158C485.093 123.476 486.813 122.186 488.815 121.463L523.965 108.658L532.598 105.455C534.313 104.861 536.192 104.848 537.915 105.418C539.639 105.988 541.104 107.106 542.061 108.584C542.484 109.222 542.801 109.918 543 110.647Z" fill="#930BFF"/>
<path d="M523.756 104.677L532.385 101.458C534.302 100.791 536.417 100.855 538.285 101.636C540.154 102.417 541.632 103.854 542.407 105.647C543.184 107.439 543.198 109.447 542.447 111.249C541.696 113.051 540.24 114.507 538.382 115.312L520.254 123.506L493.303 247.392C491.788 252.731 488.462 257.447 483.837 260.811C479.213 264.175 473.549 265.999 467.722 266H289.137C278.717 266.015 268.394 264.08 258.762 260.306C249.13 256.532 240.376 250.994 233 244.007" stroke="black" stroke-width="4.23" stroke-miterlimit="10"/>
<path d="M461 183L460.436 184.487C450.173 210.69 449 226 449 226" stroke="black" stroke-width="4.23" stroke-miterlimit="10"/>
<path d="M189.954 249L182 172.319C181.994 165.039 184.242 157.916 188.469 151.83C192.695 145.743 198.715 140.958 205.785 138.066C210.951 135.899 216.567 134.857 222.217 135.016C227.867 135.174 233.407 136.529 238.429 138.982C239.075 139.306 239.753 139.629 240.419 139.989C240.58 140.087 240.742 140.142 240.903 140.234C247.691 143.898 254.05 148.231 259.874 153.159C261.283 154.338 262.672 155.48 264.023 156.585C264.546 157.018 265.031 157.439 265.489 157.806C279.304 169.242 289.921 177.954 298.702 184.335L298.941 184.506C312.672 194.476 321.86 198.604 331.746 198.299C337.988 198.109 344.495 196.131 352.584 192.742C382.792 180.067 433.56 188.346 451 220.065" stroke="black" stroke-width="4.23" stroke-miterlimit="10"/>
<path d="M210 265.963C210.423 265.963 210.82 266 211.217 266C216.994 266 222.535 263.81 226.62 259.912C230.704 256.014 233 250.727 233 245.214V186" stroke="black" stroke-width="4.23" stroke-miterlimit="10"/>
<path d="M185 158C182.668 135.266 155.021 122.391 135.468 134.865C135.148 135.038 134.829 135.247 134.535 135.482L134.292 135.654C133.915 135.926 133.538 136.197 133.161 136.481C131.96 137.396 130.834 138.4 129.795 139.484C129.476 139.829 129.156 140.193 128.856 140.538C128.556 140.883 128.262 141.272 128 141.617" stroke="black" stroke-width="4.23" stroke-miterlimit="10"/>
<path d="M138 184C141.664 187.355 145.981 190.049 150.727 191.942C169.761 198.991 179 185.673 179 185.673" stroke="black" stroke-width="4.23" stroke-miterlimit="10"/>
<path d="M342.211 197C342.791 196.802 343.377 196.61 343.938 196.437L344.118 196.381C344.27 196.338 344.418 196.286 344.563 196.227C345.059 196.072 345.542 195.899 346.044 195.707L346.991 195.342C356.506 191.339 365.105 181.423 362.541 170.788C360.055 160.519 349.433 153.009 339.351 150.299C332.71 148.53 325.663 148.375 318.796 148.796C307.31 149.489 294.24 152.285 282.98 148.833C267.262 144.014 249.534 108.35 221.088 108.003C192.641 107.657 173 136.411 173 136.411" stroke="black" stroke-width="4.23" stroke-miterlimit="10"/>
<path d="M179 143C179 143 184.932 135.598 220 135" stroke="black" stroke-width="4.23" stroke-miterlimit="10"/>
<path d="M461 185L478.369 138.593L479.723 134.965L484.065 123.352C484.396 122.469 484.866 121.638 485.459 120.888C486.669 119.207 488.389 117.918 490.391 117.192L524 105" stroke="black" stroke-width="4.23" stroke-miterlimit="10"/>
<path d="M444.79 107.987L435.494 122.455L411.232 153L408 139.105C408.05 137.087 408.751 135.13 410.01 133.491L431.263 105.743L433.556 103.062C434.655 101.664 436.237 100.665 438.033 100.235C439.829 99.8044 441.729 99.9691 443.411 100.701C444.308 101.088 445.116 101.635 445.789 102.312C446.029 103.273 446.065 104.269 445.893 105.243C445.722 106.217 445.347 107.149 444.79 107.987Z" fill="#930BFF"/>
<path d="M464 176L435.148 123.013L444.236 108.51C445.034 107.282 445.447 105.86 445.426 104.414C445.404 102.967 444.949 101.557 444.114 100.352C443.321 99.1986 442.207 98.2806 440.898 97.7026C439.254 96.9713 437.397 96.805 435.64 97.2313C433.883 97.6577 432.333 98.6509 431.251 100.044L429 102.755" stroke="black" stroke-width="4.23" stroke-miterlimit="10"/>
<path d="M429 103L407.964 130.655C406.729 132.303 406.049 134.262 406.013 136.279C405.963 137.218 406.057 138.157 406.292 139.07L409.414 150.975L410.389 154.704L420.95 195" stroke="black" stroke-width="4.23" stroke-miterlimit="10"/>
<path d="M135.412 135C116.643 146.145 118.791 175.895 134.309 182.438C140.238 184.941 157.26 185.551 155.348 175.578C154.072 168.662 158.019 167.747 164.796 170.084C176.52 174.15 179 163.285 179 162.534" stroke="black" stroke-width="4.23" stroke-miterlimit="10"/>
<path d="M176 189L183 191" stroke="black" stroke-width="4.23" stroke-miterlimit="10"/>
<path d="M114.35 222.903L106.868 237.512C106.345 238.53 105.429 239.32 104.308 239.718C103.188 240.116 101.95 240.092 100.847 239.65C100.239 239.407 99.6927 239.044 99.2439 238.587C98.7951 238.129 98.4542 237.585 98.2437 236.994C98.0333 236.402 97.958 235.774 98.0223 235.152C98.0872 234.531 98.2911 233.929 98.6198 233.388L100.075 230.985C100.121 230.861 100.175 230.74 100.237 230.622L101.244 228.698L109.803 212.375C110.84 210.374 112.39 208.65 114.312 207.362C116.234 206.074 118.466 205.261 120.805 205H121" stroke="black" stroke-width="4.23" stroke-miterlimit="10"/>
<path d="M131.146 221.902L120.238 224.821C119.622 224.986 118.977 225.038 118.34 224.973C117.703 224.907 117.087 224.726 116.525 224.44C115.964 224.154 115.468 223.769 115.069 223.306C114.668 222.843 114.371 222.312 114.193 221.742C114.014 221.173 113.959 220.577 114.03 219.988C114.1 219.399 114.296 218.828 114.605 218.309C114.915 217.79 115.332 217.333 115.832 216.962C116.333 216.593 116.908 216.317 117.524 216.153L133 212" stroke="black" stroke-width="4.23" stroke-miterlimit="10"/>
<path d="M122.795 224C123.235 225.679 122.961 227.455 122.033 228.945C119.849 232.335 114.32 233.5 110 232.81" stroke="black" stroke-width="4.23" stroke-miterlimit="10"/>
<path d="M101.367 229C97.1172 226.255 96.2518 221.188 97.5629 216.731C102.898 198.289 125.16 202.672 139.931 205.911C148.733 207.891 157.369 210.488 165.764 213.681C172.714 216.31 179.515 219.837 187 220.809" stroke="black" stroke-width="4.23" stroke-miterlimit="10"/>
<path d="M122 229C122 229 123.513 229.524 126.1 230.517C137.289 234.814 147.934 240.356 157.825 247.034C162.685 250.305 168.95 252.521 176 254" stroke="black" stroke-width="4.23" stroke-miterlimit="10"/>
<path d="M188.625 240.138C186.333 239.775 183.977 240.135 181.93 241.162C179.883 242.189 178.263 243.824 177.326 245.807C173.29 253.532 178.926 262.678 188.045 263.985C195.64 265.135 203.309 265.809 211 266" stroke="black" stroke-width="4.23" stroke-miterlimit="10"/>
<path d="M186 200L185 199.739C185 199.739 185.321 199.478 186 199C185.946 199.326 186 199.739 186 200Z" fill="#222222"/>
<path d="M156.546 256.857L65.4277 240.073C63.1243 239.649 60.9019 241.115 60.4645 243.347L60.0753 245.332C59.6379 247.565 61.1502 249.719 63.4536 250.143L154.572 266.927C156.876 267.351 159.097 265.885 159.536 263.652L159.925 261.668C160.362 259.435 158.85 257.282 156.546 256.857Z" stroke="black" stroke-width="4.23" stroke-miterlimit="10"/>
<path d="M74.8652 267.306V281.538" stroke="black" stroke-width="4.23" stroke-miterlimit="10"/>
<path d="M6.81738 281.538H554.951" stroke="black" stroke-width="4.23" stroke-miterlimit="10"/>
</svg>
