<svg width="714" height="747" viewBox="0 0 714 747" fill="none" xmlns="http://www.w3.org/2000/svg">
<g clip-path="url(#clip0)">
<path d="M468.671 898.97V490.495H647.528V952.515" stroke="black" stroke-width="4.82" stroke-miterlimit="10"/>
<path d="M486.449 528.129V552.033H509.297V508.162H486.449V528.129ZM490.205 512.083H505.513V528.129H490.205V512.083ZM490.205 532.051H505.513V548.096H490.205V532.051Z" fill="black"/>
<path d="M526.734 528.129V552.033H549.582V508.162H526.734V528.129ZM530.504 512.091H545.841V528.129H530.504V512.091ZM530.504 532.058H545.841V548.104H530.504V532.058Z" fill="black"/>
<path d="M565.918 528.129V552.033H588.766V508.162H565.918V528.129ZM569.674 512.083H585.01V528.129H569.674V512.083ZM569.674 532.051H585.01V548.096H569.674V532.051Z" fill="black"/>
<path d="M602.803 508.162V552.033H625.651V508.162H602.803ZM621.896 548.104H606.552V532.058H621.896V548.104ZM621.896 528.129H606.552V512.091H621.896V528.129Z" fill="black"/>
<path d="M486.449 587.141V611.045H509.297V567.181H486.449V587.141ZM490.205 571.096H505.513V587.141H490.205V571.096ZM490.205 591.063H505.513V607.109H490.205V591.063Z" fill="black"/>
<path d="M526.734 587.141V611.045H549.582V567.181H526.734V587.141ZM530.504 571.103H545.841V587.141H530.504V571.103ZM530.504 591.07H545.841V607.116H530.504V591.07Z" fill="black"/>
<path d="M565.918 587.141V611.045H588.766V567.181H565.918V587.141ZM569.674 571.096H585.01V587.141H569.674V571.096ZM569.674 591.063H585.01V607.109H569.674V591.063Z" fill="black"/>
<path d="M602.803 587.141V611.045H625.651V567.181H602.803V587.141ZM606.552 571.096H621.896V587.141H606.552V571.096ZM606.552 591.063H621.896V607.109H606.552V591.063Z" fill="black"/>
<path d="M486.449 646.154V670.058H509.297V626.194H486.449V646.154ZM490.205 630.109H505.513V646.154H490.205V630.109ZM490.205 650.083H505.513V666.129H490.205V650.083Z" fill="black"/>
<path d="M526.734 646.154V670.058H549.582V626.194H526.734V646.154ZM530.504 630.116H545.841V646.154H530.504V630.116ZM530.504 650.091H545.841V666.136H530.504V650.091Z" fill="black"/>
<path d="M565.918 646.154V670.058H588.766V626.194H565.918V646.154ZM569.674 630.109H585.01V646.154H569.674V630.109ZM569.674 650.083H585.01V666.129H569.674V650.083Z" fill="black"/>
<path d="M602.803 646.154V670.058H625.651V626.194H602.803V646.154ZM606.552 630.109H621.896V646.154H606.552V630.109ZM606.552 650.083H621.896V666.129H606.552V650.083Z" fill="black"/>
<path d="M486.449 705.167V729.071H509.297V685.207H486.449V705.167ZM490.205 689.122H505.513V705.167H490.205V689.122ZM490.205 709.089H505.513V725.135H490.205V709.089Z" fill="black"/>
<path d="M526.734 705.167V729.071H549.582V685.207H526.734V705.167ZM530.504 689.137H545.841V705.167H530.504V689.137ZM530.504 709.104H545.841V725.149H530.504V709.104Z" fill="black"/>
<path d="M565.918 705.167V729.071H588.766V685.207H565.918V705.167ZM569.674 689.122H585.01V705.167H569.674V689.122ZM569.674 709.089H585.01V725.135H569.674V709.089Z" fill="black"/>
<path d="M602.803 705.167V729.071H625.651V685.207H602.803V705.167ZM606.552 689.122H621.896V705.167H606.552V689.122ZM606.552 709.089H621.896V725.135H606.552V709.089Z" fill="black"/>
<path d="M486.449 764.181V788.085H509.297V744.22H486.449V764.181ZM490.205 748.136H505.513V764.181H490.205V748.136ZM490.205 768.103H505.513V784.148H490.205V768.103Z" fill="black"/>
<path d="M526.734 764.181V788.085H549.582V744.22H526.734V764.181ZM530.49 748.136H545.827V764.181H530.504L530.49 748.136ZM530.49 768.103H545.827V784.148H530.504L530.49 768.103Z" fill="black"/>
<path d="M565.918 764.181V788.085H588.766V744.22H565.918V764.181ZM569.674 748.136H585.01V764.181H569.674V748.136ZM569.674 768.103H585.01V784.148H569.674V768.103Z" fill="black"/>
<path d="M602.803 764.181V788.085H625.651V744.22H602.803V764.181ZM606.552 748.136H621.896V764.181H606.552V748.136ZM606.552 768.103H621.896V784.148H606.552V768.103Z" fill="black"/>
<path d="M370.781 324.011V119.684H549.631V490.51" stroke="black" stroke-width="4.82" stroke-miterlimit="10"/>
<path d="M388.558 157.317V181.221H411.406V137.343H388.558V157.317ZM392.314 141.272H407.65V157.317H392.314V141.272ZM392.314 161.239H407.65V177.285H392.314V161.239Z" fill="black"/>
<path d="M428.849 157.317V181.221H451.697V137.343H428.849V157.317ZM432.598 141.272H447.934V157.317H432.598V141.272ZM432.598 161.239H447.934V177.285H432.598V161.239Z" fill="black"/>
<path d="M468.036 157.317V181.221H490.884V137.343H468.036V157.317ZM471.784 141.272H487.121V157.317H471.784V141.272ZM471.784 161.239H487.121V177.285H471.784V161.239Z" fill="black"/>
<path d="M504.912 137.343V181.206H527.76V137.343H504.912ZM523.998 177.285H508.668V161.239H523.998V177.285ZM523.998 157.317H508.668V141.272H523.998V157.317Z" fill="black"/>
<path d="M388.558 216.331V240.235H411.406V196.364H388.558V216.331ZM392.314 200.286H407.65V216.331H392.314V200.286ZM392.314 220.253H407.65V236.299H392.314V220.253Z" fill="black"/>
<path d="M428.849 216.331V240.235H451.697V196.364H428.849V216.331ZM432.598 200.286H447.934V216.331H432.598V200.286ZM432.598 220.253H447.934V236.299H432.598V220.253Z" fill="black"/>
<path d="M468.036 216.331V240.235H490.884V196.364H468.036V216.331ZM471.784 200.286H487.121V216.331H471.784V200.286ZM471.784 220.253H487.121V236.299H471.784V220.253Z" fill="black"/>
<path d="M504.912 216.331V240.235H527.76V196.364H504.912V216.331ZM508.668 200.286H523.998V216.331H508.668V200.286ZM508.668 220.253H523.998V236.299H508.668V220.253Z" fill="black"/>
<path d="M388.558 275.344V299.248H411.406V255.377H388.558V275.344ZM392.314 259.299H407.65V275.344H392.314V259.299ZM392.314 279.273H407.65V295.319H392.314V279.273Z" fill="black"/>
<path d="M428.849 275.344V299.248H451.697V255.377H428.849V275.344ZM432.598 259.299H447.934V275.344H432.598V259.299ZM432.598 279.273H447.934V295.319H432.598V279.273Z" fill="black"/>
<path d="M468.036 275.344V299.248H490.884V255.377H468.036V275.344ZM471.784 259.299H487.121V275.344H471.784V259.299ZM471.784 279.273H487.121V295.319H471.784V279.273Z" fill="black"/>
<path d="M504.912 275.344V299.248H527.76V255.377H504.912V275.344ZM508.668 259.299H523.998V275.344H508.668V259.299ZM508.668 279.273H523.998V295.319H508.668V279.273Z" fill="black"/>
<path d="M388.558 334.365V358.269H411.406V314.39H388.558V334.365ZM392.314 318.319H407.65V334.365H392.314V318.319ZM392.314 338.286H407.65V354.332H392.314V338.286Z" fill="black"/>
<path d="M428.849 334.365V358.269H451.697V314.39H428.849V334.365ZM432.598 318.319H447.934V334.365H432.598V318.319ZM432.598 338.286H447.934V354.332H432.598V338.286Z" fill="black"/>
<path d="M468.036 334.365V358.269H490.884V314.39H468.036V334.365ZM471.784 318.319H487.121V334.365H471.784V318.319ZM471.784 338.286H487.121V354.332H471.784V338.286Z" fill="black"/>
<path d="M504.912 334.365V358.269H527.76V314.39H504.912V334.365ZM508.668 318.319H523.998V334.365H508.668V318.319ZM508.668 338.286H523.998V354.332H508.668V338.286Z" fill="black"/>
<path d="M428.849 393.378V417.282H451.697V373.403H428.849V393.378ZM432.598 377.332H447.934V393.378H432.598V377.332ZM432.598 397.299H447.934V413.345H432.598V397.299Z" fill="black"/>
<path d="M468.036 393.378V417.282H490.884V373.403H468.036V393.378ZM471.784 377.332H487.121V393.378H471.784V377.332ZM471.784 397.299H487.121V413.345H471.784V397.299Z" fill="black"/>
<path d="M504.912 393.378V417.282H527.76V373.403H504.912V393.378ZM508.668 377.332H523.998V393.378H508.668V377.332ZM508.668 397.299H523.998V413.345H508.668V397.299Z" fill="black"/>
<path d="M196.45 284.607C185.74 260.419 177.779 234.984 171.06 209.294C152.718 139.144 193.387 56.0849 263.516 40.7042C287.342 35.4752 312.168 36.7301 335.901 41.862C375.107 50.3255 409.943 79.4509 429.614 115.912C439.531 134.288 445.8 154.988 446.493 176.15C447.328 201.593 435.712 223.174 432.034 247.817L431.906 248.639" stroke="black" stroke-width="4.82" stroke-miterlimit="10"/>
<path d="M433.598 709.53C435.819 709.217 431.37 709.911 433.598 709.53C504.798 709.65 559.355 652.213 550.494 569.61C542.133 491.817 499.472 439.58 450.713 387.125C429.228 364.013 413.099 307.577 427.915 287.132" stroke="black" stroke-width="4.82" stroke-miterlimit="10"/>
<path d="M161.113 411.216C161.113 412.8 161.163 414.383 161.206 415.937C162.077 443.718 168.381 461.982 172.187 470.61C170.941 466.927 170.512 462.996 170.93 459.114C171.199 456.48 171.596 453.861 172.123 451.27C175.114 436.728 181.902 423.339 191.729 412.591L191.822 412.501C193.129 411.082 194.135 410.125 194.678 409.617L194.921 409.356L195.171 409.147L305.905 298.927C306.596 294.183 307.034 289.402 307.219 284.607C312.788 285.496 318.885 286.168 325.561 286.624C330.809 286.96 336.457 287.154 342.462 287.177C397.661 287.371 421.373 296.29 430.569 301.549C431.096 301.852 431.69 302.008 432.291 301.998C432.893 301.989 433.481 301.816 433.999 301.497C434.518 301.177 434.947 300.721 435.246 300.175C435.544 299.629 435.702 299.011 435.703 298.382V250.491C429.277 246.869 421.352 244.351 411.534 243.462C385.023 241.064 355.899 241.221 331.045 230.076C312.481 221.747 295.723 205.119 276.781 196.722C267.499 192.621 257.788 190.507 247.057 192.24C235.04 194.205 224.923 199.822 216.355 207.524C216.241 207.614 216.148 207.741 216.034 207.83C206.245 216.735 198.512 228.321 192.529 240.175C173.658 277.481 162.419 325.393 161.434 368.099V368.577C161.434 370.497 161.391 372.394 161.391 374.292L161.113 411.216Z" fill="black"/>
<path d="M229.395 109.413V120.715H308.142V109.413C308.145 108.525 308.099 107.637 308.006 106.754C307.376 100.254 304.459 94.2318 299.823 89.8559C295.186 85.48 289.161 83.0627 282.916 83.0739H254.57C251.264 83.0717 247.989 83.7522 244.934 85.0751C241.879 86.398 239.103 88.338 236.765 90.7844C234.426 93.2301 232.572 96.1344 231.308 99.3309C230.043 102.528 229.393 105.954 229.395 109.413Z" fill="black"/>
<path d="M337.68 455.67L348.59 484.437H417.134C418.093 484.436 419.042 484.238 419.928 483.854C420.815 483.47 421.619 482.906 422.296 482.196C423.661 480.751 424.43 478.804 424.438 476.773C424.434 475.017 423.853 473.316 422.792 471.956C421.731 470.596 420.255 469.659 418.612 469.303L387.489 462.632L383.362 446.123L337.68 455.67Z" fill="#930BFF"/>
<path d="M435.653 691.856L413.519 660.482V639.126H376.898C376.733 639.129 376.572 639.178 376.432 639.268C376.291 639.359 376.175 639.487 376.098 639.638C376.02 639.791 375.983 639.962 375.989 640.134C375.995 640.307 376.045 640.474 376.134 640.62L418.403 704.735C419.377 706.211 420.68 707.419 422.198 708.252C423.716 709.087 425.406 709.522 427.121 709.523C429.082 709.524 431.005 708.955 432.676 707.881C434.346 706.807 435.699 705.268 436.584 703.436C437.468 701.605 437.849 699.553 437.685 697.509C437.521 695.464 436.818 693.507 435.653 691.856Z" fill="#930BFF"/>
<path d="M235.22 137.052C237.312 144.15 238.378 151.535 238.383 158.962C253.863 158.962 256.776 151.066 255.584 144.828C254.256 137.896 256.248 128.222 265.487 126.833C274.726 125.444 272.12 140.675 271.02 158.648C271.049 162.514 271.659 166.35 272.827 170.017C274.564 175.55 278.202 180.211 283.037 183.097C287.649 185.769 292.854 187.117 298.124 187.004C298.124 187.004 307.156 163.496 300.851 161.554C294.547 159.611 280.052 142.744 283.351 121.963C283.423 121.507 283.494 121.104 283.587 120.693H232.929C232.814 126.241 233.589 131.772 235.22 137.052Z" fill="#930BFF"/>
<path d="M161.485 368.122V368.6C161.485 370.519 161.442 372.417 161.442 374.314L161.193 411.306C161.193 412.867 161.236 414.406 161.279 415.937" stroke="black" stroke-width="4.82" stroke-miterlimit="10"/>
<path d="M172.197 451.233C178.448 461.43 187.051 469.819 197.214 475.625C207.377 481.432 218.773 484.47 230.352 484.459H357.444C369.254 484.459 375.123 490.6 375.123 498.159V695.457C375.123 699.191 376.541 702.772 379.065 705.414C381.589 708.054 385.013 709.538 388.582 709.538H435.056" stroke="black" stroke-width="4.82" stroke-miterlimit="10"/>
<path d="M435.653 691.856L413.519 660.482V639.126H376.898C376.733 639.129 376.572 639.178 376.432 639.268C376.291 639.359 376.175 639.487 376.098 639.638C376.02 639.791 375.983 639.962 375.989 640.134C375.995 640.307 376.045 640.474 376.134 640.62L418.403 704.735C419.377 706.211 420.68 707.419 422.198 708.252C423.716 709.087 425.406 709.522 427.121 709.523C429.082 709.524 431.005 708.955 432.676 707.881C434.346 706.807 435.699 705.268 436.584 703.436C437.468 701.605 437.849 699.553 437.685 697.509C437.521 695.464 436.818 693.507 435.653 691.856Z" stroke="black" stroke-width="4.82" stroke-miterlimit="10"/>
<path d="M306.429 409.162L320.902 411.44" stroke="black" stroke-width="4.82" stroke-miterlimit="10"/>
<path d="M406.782 426.985C437.005 439.251 454.62 469.362 450.992 501.872L435.791 639.126H375.101" stroke="black" stroke-width="4.82" stroke-miterlimit="10"/>
<path d="M305.065 369.705L313.847 392.862L320.887 411.455L337.68 455.67L348.59 484.437H417.134C418.093 484.436 419.043 484.238 419.928 483.854C420.814 483.47 421.619 482.906 422.296 482.196C423.661 480.751 424.43 478.804 424.438 476.773C424.434 475.017 423.852 473.316 422.791 471.956C421.731 470.596 420.255 469.659 418.612 469.303L387.489 462.632L383.362 446.123L411.636 440.82L406.802 426.978L365.819 309.699C357.251 285.048 325.228 279.751 307.071 297.844L306.014 298.897L191.274 413.091" stroke="black" stroke-width="4.82" stroke-miterlimit="10"/>
<path d="M236.59 484.459C247.324 484.46 257.835 481.255 266.886 475.219C275.937 469.183 283.153 460.569 287.684 450.389L306.419 409.177L313.845 392.862" stroke="black" stroke-width="4.82" stroke-miterlimit="10"/>
<path d="M251.447 256.438C251.447 256.438 260.187 277.219 307.289 284.629C312.858 285.521 318.972 286.193 325.632 286.646C330.868 286.98 336.501 287.164 342.532 287.199C397.731 287.393 421.443 296.312 430.64 301.571C431.167 301.875 431.761 302.029 432.363 302.02C432.964 302.01 433.553 301.837 434.071 301.518C434.59 301.199 435.02 300.744 435.319 300.198C435.619 299.652 435.778 299.034 435.781 298.404V277.264C439.972 280.192 443.049 284.532 445.27 289.455C448.047 295.431 449.554 302.333 450.36 308.645C451.019 313.63 451.334 318.658 451.303 323.69C451.302 324.931 451.772 326.121 452.61 326.999C453.02 327.441 453.512 327.793 454.055 328.031C454.599 328.27 455.183 328.392 455.773 328.389C456.833 328.392 457.86 328 458.671 327.285C459.482 326.57 460.023 325.576 460.199 324.482C462.341 311.26 466.575 267.956 435.781 250.491C429.355 246.869 421.422 244.351 411.605 243.462C385.101 241.064 355.977 241.221 331.115 230.076C312.516 221.747 295.779 205.096 276.851 196.722C267.605 192.621 257.859 190.507 247.127 192.24C235.111 194.205 224.993 199.822 216.425 207.524C206.472 216.488 198.647 228.201 192.592 240.175C173.721 277.481 162.483 325.393 161.497 368.099V368.577C161.497 370.497 161.455 372.394 161.455 374.292" stroke="black" stroke-width="4.82" stroke-miterlimit="10"/>
<path d="M272.907 170.167L272.842 170.017C271.521 167.268 270.7 163.585 271.029 158.655C272.114 140.668 274.763 125.444 265.502 126.833C256.242 128.222 254.264 137.904 255.614 144.821C256.806 151.066 253.907 159.014 238.42 158.969" stroke="black" stroke-width="4.82" stroke-miterlimit="10"/>
<path d="M300.851 161.554C302.072 156.877 312.66 157.535 307.912 147.406C305.206 141.624 305.056 131.771 306.755 120.715" stroke="black" stroke-width="4.82" stroke-miterlimit="10"/>
<path d="M232.928 120.715C232.823 126.255 233.596 131.775 235.212 137.052C237.315 144.149 238.386 151.538 238.39 158.969L238.133 172.049C238.05 178.112 236.565 184.065 233.806 189.398C231.047 194.732 227.096 199.287 222.289 202.676C220.061 204.182 217.981 205.914 216.077 207.845" stroke="black" stroke-width="4.82" stroke-miterlimit="10"/>
<path d="M271.027 158.655C271.052 162.52 271.664 166.355 272.841 170.017C278.903 188.154 298.116 186.996 298.116 186.996C298.116 186.996 307.163 163.496 300.851 161.554C294.539 159.611 280.052 142.744 283.358 121.963C283.422 121.522 283.508 121.096 283.594 120.693" stroke="black" stroke-width="4.82" stroke-miterlimit="10"/>
<path d="M308.205 106.746H308.333" stroke="black" stroke-width="4.82" stroke-miterlimit="10"/>
<path d="M337.68 455.692L383.333 446.146" stroke="black" stroke-width="4.82" stroke-miterlimit="10"/>
<path d="M435.783 277.264V250.491" stroke="black" stroke-width="4.82" stroke-miterlimit="10"/>
<path d="M445.286 289.44C441.244 296.761 442.187 311.566 446.564 311.275C448.077 311.155 449.341 310.072 450.376 308.638" stroke="black" stroke-width="4.82" stroke-miterlimit="10"/>
<path d="M308.333 120.715V109.421C308.333 105.958 307.681 102.53 306.414 99.3301C305.146 96.1315 303.289 93.2249 300.947 90.7777C298.606 88.3298 295.827 86.3891 292.768 85.0661C289.71 83.7432 286.432 83.0634 283.122 83.0664H254.776C251.467 83.0634 248.19 83.7432 245.132 85.0669C242.074 86.3898 239.296 88.3305 236.955 90.7785C234.615 93.2264 232.759 96.1329 231.493 99.3316C230.228 102.53 229.577 105.959 229.579 109.421V120.715H336.493" stroke="black" stroke-width="4.82" stroke-miterlimit="10"/>
<path d="M287.164 120.715C287.664 90.0359 270.963 83.7685 268.964 83.1261C268.837 83.0805 268.698 83.0805 268.571 83.1261C266.572 83.7685 249.872 90.0359 250.371 120.715" stroke="black" stroke-width="4.82" stroke-miterlimit="10"/>
<path d="M274.412 82.917C274.36 81.3871 273.742 79.938 272.689 78.875C271.636 77.812 270.23 77.2181 268.767 77.2181C267.304 77.2181 265.898 77.812 264.845 78.875C263.792 79.938 263.175 81.3871 263.123 82.917H274.412Z" fill="black"/>
<path d="M283.037 183.082L276.868 196.715" stroke="black" stroke-width="4.82" stroke-miterlimit="10"/>
<path d="M304.793 132.219C304.793 132.219 295.161 130.404 291.491 138.195" stroke="black" stroke-width="4.76" stroke-miterlimit="10"/>
<path d="M300.122 142.959C301.468 141.979 301.913 140.212 301.115 139.014C300.317 137.815 298.579 137.638 297.232 138.62C295.887 139.601 295.442 141.367 296.24 142.566C297.038 143.764 298.776 143.94 300.122 142.959Z" fill="black"/>
<path d="M292.31 163.242C292.31 163.242 295.973 168.643 303.449 166.716" stroke="black" stroke-width="4.76" stroke-miterlimit="10"/>
<path d="M195.223 409.162C195.223 409.162 174.217 426.985 170.997 459.091C169.669 472.336 177.637 484.452 190.368 484.452H232.129" stroke="black" stroke-width="4.82" stroke-miterlimit="10"/>
<path d="M175.135 476.325C175.135 476.325 160.54 452.861 161.197 406.107" stroke="black" stroke-width="4.82" stroke-miterlimit="10"/>
<path d="M305.985 298.927C306.674 294.183 307.111 289.402 307.292 284.607" stroke="black" stroke-width="4.82" stroke-miterlimit="10"/>
<path d="M173.993 454.004C173.993 454.004 173.172 452.398 172.194 454.647C171.216 456.895 167.239 475.465 179.477 480.874C191.715 486.282 217.412 483.197 217.412 483.197C217.412 483.197 187.067 476.459 173.993 454.004Z" fill="black"/>
<path d="M213.908 556.158C211.764 556.158 209.892 555.774 208.292 555.006C206.724 554.238 205.508 553.23 204.644 551.982C203.78 550.702 203.268 549.326 203.108 547.854H204.068C204.228 548.974 204.628 550.094 205.268 551.214C205.94 552.334 206.98 553.294 208.388 554.094C209.828 554.894 211.668 555.294 213.908 555.294C215.7 555.294 217.284 554.958 218.66 554.286C220.036 553.582 221.092 552.654 221.828 551.502C222.564 550.35 222.932 549.07 222.932 547.662C222.932 545.838 222.516 544.398 221.684 543.342C220.852 542.254 219.812 541.454 218.564 540.942C217.348 540.43 215.7 539.902 213.62 539.358C211.444 538.782 209.7 538.206 208.388 537.63C207.076 537.054 205.956 536.174 205.028 534.99C204.132 533.774 203.684 532.142 203.684 530.094C203.684 528.622 204.084 527.246 204.884 525.966C205.716 524.654 206.884 523.614 208.388 522.846C209.924 522.078 211.668 521.694 213.62 521.694C215.604 521.694 217.316 522.046 218.756 522.75C220.196 523.454 221.316 524.35 222.116 525.438C222.948 526.494 223.492 527.614 223.748 528.798H222.788C222.564 527.87 222.1 526.926 221.396 525.966C220.692 525.006 219.684 524.206 218.372 523.566C217.06 522.894 215.476 522.558 213.62 522.558C211.988 522.558 210.484 522.878 209.108 523.518C207.764 524.126 206.676 525.006 205.844 526.158C205.044 527.278 204.644 528.59 204.644 530.094C204.644 531.95 205.06 533.438 205.892 534.558C206.756 535.646 207.812 536.462 209.06 537.006C210.308 537.518 211.972 538.046 214.052 538.59C216.228 539.166 217.956 539.742 219.236 540.318C220.548 540.862 221.652 541.726 222.548 542.91C223.444 544.062 223.892 545.646 223.892 547.662C223.892 549.07 223.508 550.43 222.74 551.742C222.004 553.054 220.884 554.126 219.38 554.958C217.876 555.758 216.052 556.158 213.908 556.158ZM245.498 555.294C248.41 555.294 250.858 554.558 252.842 553.086C254.826 551.614 256.026 549.598 256.442 547.038H257.402C256.954 549.758 255.674 551.966 253.562 553.662C251.482 555.326 248.794 556.158 245.498 556.158C243.098 556.158 240.954 555.63 239.066 554.574C237.178 553.518 235.69 551.982 234.602 549.966C233.546 547.95 233.018 545.582 233.018 542.862C233.018 540.142 233.546 537.774 234.602 535.758C235.69 533.742 237.178 532.206 239.066 531.15C240.954 530.094 243.098 529.566 245.498 529.566C248.026 529.566 250.186 530.11 251.978 531.198C253.77 532.254 255.114 533.63 256.01 535.326C256.938 537.022 257.402 538.814 257.402 540.702C257.402 541.854 257.386 542.718 257.354 543.294H233.978C234.01 545.95 234.554 548.174 235.61 549.966C236.698 551.758 238.106 553.102 239.834 553.998C241.562 554.862 243.45 555.294 245.498 555.294ZM245.498 530.43C243.45 530.43 241.562 530.878 239.834 531.774C238.106 532.638 236.698 533.966 235.61 535.758C234.554 537.55 234.01 539.774 233.978 542.43H256.538C256.698 539.774 256.266 537.55 255.242 535.758C254.25 533.966 252.874 532.638 251.114 531.774C249.386 530.878 247.514 530.43 245.498 530.43ZM269.159 523.278C268.807 523.278 268.503 523.166 268.247 522.942C268.023 522.686 267.911 522.366 267.911 521.982C267.911 521.598 268.023 521.294 268.247 521.07C268.503 520.814 268.807 520.686 269.159 520.686C269.511 520.686 269.799 520.814 270.023 521.07C270.279 521.294 270.407 521.598 270.407 521.982C270.407 522.366 270.279 522.686 270.023 522.942C269.799 523.166 269.511 523.278 269.159 523.278ZM269.639 563.118C269.639 564.686 269.255 565.886 268.487 566.718C267.719 567.582 266.439 568.014 264.647 568.014H262.919V567.054H264.647C266.055 567.054 267.079 566.734 267.719 566.094C268.359 565.486 268.679 564.398 268.679 562.83V529.902H269.639V563.118ZM280.448 542.862C280.448 540.142 280.976 537.79 282.032 535.806C283.088 533.79 284.576 532.254 286.496 531.198C288.416 530.11 290.608 529.566 293.072 529.566C296.048 529.566 298.56 530.35 300.608 531.918C302.688 533.454 304.08 535.422 304.784 537.822V529.902H305.696V555.822H304.784V547.902C304.08 550.302 302.688 552.286 300.608 553.854C298.56 555.39 296.048 556.158 293.072 556.158C290.608 556.158 288.416 555.63 286.496 554.574C284.576 553.486 283.088 551.95 282.032 549.966C280.976 547.95 280.448 545.582 280.448 542.862ZM304.784 542.862C304.784 540.398 304.272 538.238 303.248 536.382C302.256 534.494 300.864 533.038 299.072 532.014C297.312 530.958 295.312 530.43 293.072 530.43C290.704 530.43 288.64 530.926 286.88 531.918C285.152 532.91 283.808 534.35 282.848 536.238C281.888 538.094 281.408 540.302 281.408 542.862C281.408 545.422 281.888 547.646 282.848 549.534C283.808 551.39 285.152 552.814 286.88 553.806C288.64 554.798 290.704 555.294 293.072 555.294C295.312 555.294 297.312 554.782 299.072 553.758C300.864 552.702 302.256 551.246 303.248 549.39C304.272 547.502 304.784 545.326 304.784 542.862ZM216.181 596.254C218.197 596.638 219.877 597.63 221.221 599.23C222.565 600.798 223.237 602.654 223.237 604.798C223.237 607.454 222.325 609.63 220.501 611.326C218.677 612.99 216.021 613.822 212.533 613.822H202.837V580.03H212.533C215.893 580.03 218.389 580.798 220.021 582.334C221.653 583.838 222.469 585.822 222.469 588.286C222.469 590.526 221.861 592.318 220.645 593.662C219.461 595.006 217.973 595.87 216.181 596.254ZM203.797 595.774H212.821C215.637 595.774 217.781 595.118 219.253 593.806C220.757 592.462 221.509 590.622 221.509 588.286C221.509 586.046 220.773 584.27 219.301 582.958C217.829 581.646 215.573 580.99 212.533 580.99H203.797V595.774ZM212.533 612.862C215.605 612.862 217.989 612.142 219.685 610.702C221.413 609.262 222.277 607.294 222.277 604.798C222.277 602.334 221.397 600.382 219.637 598.942C217.877 597.47 215.477 596.734 212.437 596.734H203.797V612.862H212.533ZM244.816 613.294C247.728 613.294 250.176 612.558 252.16 611.086C254.144 609.614 255.344 607.598 255.76 605.038H256.72C256.272 607.758 254.992 609.966 252.88 611.662C250.8 613.326 248.112 614.158 244.816 614.158C242.416 614.158 240.272 613.63 238.384 612.574C236.496 611.518 235.008 609.982 233.92 607.966C232.864 605.95 232.336 603.582 232.336 600.862C232.336 598.142 232.864 595.774 233.92 593.758C235.008 591.742 236.496 590.206 238.384 589.15C240.272 588.094 242.416 587.566 244.816 587.566C247.344 587.566 249.504 588.11 251.296 589.198C253.088 590.254 254.432 591.63 255.328 593.326C256.256 595.022 256.72 596.814 256.72 598.702C256.72 599.854 256.704 600.718 256.672 601.294H233.296C233.328 603.95 233.872 606.174 234.928 607.966C236.016 609.758 237.424 611.102 239.152 611.998C240.88 612.862 242.768 613.294 244.816 613.294ZM244.816 588.43C242.768 588.43 240.88 588.878 239.152 589.774C237.424 590.638 236.016 591.966 234.928 593.758C233.872 595.55 233.328 597.774 233.296 600.43H255.856C256.016 597.774 255.584 595.55 254.56 593.758C253.568 591.966 252.192 590.638 250.432 589.774C248.704 588.878 246.832 588.43 244.816 588.43ZM297.853 587.326C300.733 587.326 303.101 588.27 304.957 590.158C306.813 592.046 307.741 594.894 307.741 598.702V613.822H306.829V598.606C306.829 595.214 306.029 592.638 304.429 590.878C302.829 589.086 300.637 588.19 297.853 588.19C294.941 588.19 292.589 589.23 290.797 591.31C289.005 593.358 288.109 596.35 288.109 600.286V613.822H287.197V598.606C287.197 595.214 286.397 592.638 284.797 590.878C283.197 589.086 281.005 588.19 278.221 588.19C275.277 588.19 272.909 589.23 271.117 591.31C269.357 593.358 268.477 596.35 268.477 600.286V613.822H267.517V587.902H268.477V594.766C269.117 592.27 270.301 590.414 272.029 589.198C273.789 587.95 275.853 587.326 278.221 587.326C280.653 587.326 282.733 588.014 284.461 589.39C286.221 590.734 287.341 592.782 287.821 595.534C288.397 592.782 289.581 590.734 291.373 589.39C293.197 588.014 295.357 587.326 297.853 587.326ZM202.613 638.03L189.653 671.822H188.693L175.781 638.03H176.885L189.173 670.382L201.557 638.03H202.613ZM212.459 639.278C212.107 639.278 211.803 639.166 211.547 638.942C211.323 638.686 211.211 638.366 211.211 637.982C211.211 637.598 211.323 637.294 211.547 637.07C211.803 636.814 212.107 636.686 212.459 636.686C212.811 636.686 213.099 636.814 213.323 637.07C213.579 637.294 213.707 637.598 213.707 637.982C213.707 638.366 213.579 638.686 213.323 638.942C213.099 639.166 212.811 639.278 212.459 639.278ZM212.939 645.902V671.822H211.979V645.902H212.939ZM236.096 645.326C239.136 645.326 241.632 646.27 243.584 648.158C245.536 650.046 246.512 652.894 246.512 656.702V671.822H245.6V656.606C245.6 653.214 244.752 650.638 243.056 648.878C241.36 647.086 239.04 646.19 236.096 646.19C233.024 646.19 230.56 647.198 228.704 649.214C226.848 651.198 225.92 654.142 225.92 658.046V671.822H224.96V645.902H225.92V652.718C226.528 650.318 227.744 648.494 229.568 647.246C231.392 645.966 233.568 645.326 236.096 645.326ZM257.084 658.862C257.084 656.142 257.612 653.79 258.668 651.806C259.724 649.79 261.212 648.254 263.132 647.198C265.052 646.11 267.244 645.566 269.708 645.566C272.684 645.566 275.196 646.35 277.244 647.918C279.324 649.454 280.716 651.422 281.42 653.822V636.302H282.332V671.822H281.42V663.854C280.716 666.286 279.324 668.286 277.244 669.854C275.196 671.39 272.684 672.158 269.708 672.158C267.244 672.158 265.052 671.63 263.132 670.574C261.212 669.486 259.724 667.95 258.668 665.966C257.612 663.95 257.084 661.582 257.084 658.862ZM281.42 658.862C281.42 656.398 280.908 654.238 279.884 652.382C278.892 650.494 277.5 649.038 275.708 648.014C273.948 646.958 271.948 646.43 269.708 646.43C267.34 646.43 265.276 646.926 263.516 647.918C261.788 648.91 260.444 650.35 259.484 652.238C258.524 654.094 258.044 656.302 258.044 658.862C258.044 661.422 258.524 663.646 259.484 665.534C260.444 667.39 261.788 668.814 263.516 669.806C265.276 670.798 267.34 671.294 269.708 671.294C271.948 671.294 273.948 670.782 275.708 669.758C277.5 668.702 278.892 667.246 279.884 665.39C280.908 663.502 281.42 661.326 281.42 658.862ZM305.8 672.158C303.4 672.158 301.24 671.63 299.32 670.574C297.4 669.486 295.88 667.95 294.76 665.966C293.672 663.95 293.128 661.582 293.128 658.862C293.128 656.142 293.672 653.79 294.76 651.806C295.88 649.79 297.4 648.254 299.32 647.198C301.24 646.11 303.4 645.566 305.8 645.566C308.2 645.566 310.36 646.11 312.28 647.198C314.2 648.254 315.704 649.79 316.792 651.806C317.88 653.79 318.424 656.142 318.424 658.862C318.424 661.582 317.88 663.95 316.792 665.966C315.704 667.95 314.2 669.486 312.28 670.574C310.36 671.63 308.2 672.158 305.8 672.158ZM305.8 671.294C307.88 671.294 309.8 670.846 311.56 669.95C313.32 669.022 314.744 667.63 315.832 665.774C316.92 663.918 317.464 661.614 317.464 658.862C317.464 656.11 316.92 653.806 315.832 651.95C314.744 650.094 313.32 648.718 311.56 647.822C309.8 646.894 307.88 646.43 305.8 646.43C303.72 646.43 301.784 646.894 299.992 647.822C298.232 648.718 296.808 650.11 295.72 651.998C294.632 653.854 294.088 656.142 294.088 658.862C294.088 661.582 294.632 663.886 295.72 665.774C296.808 667.63 298.232 669.022 299.992 669.95C301.784 670.846 303.72 671.294 305.8 671.294ZM331.07 638.03L330.926 664.286H330.062L329.918 638.03H331.07ZM330.59 671.918C330.238 671.918 329.934 671.806 329.678 671.582C329.454 671.326 329.342 671.006 329.342 670.622C329.342 670.238 329.454 669.934 329.678 669.71C329.934 669.454 330.238 669.326 330.59 669.326C330.942 669.326 331.23 669.454 331.454 669.71C331.71 669.934 331.838 670.238 331.838 670.622C331.838 671.006 331.71 671.326 331.454 671.582C331.23 671.806 330.942 671.918 330.59 671.918Z" fill="black"/>
</g>
<defs>
<clipPath id="clip0">
<rect width="714" height="747" fill="white"/>
</clipPath>
</defs>
</svg>
