<svg width="550" height="523" viewBox="0 0 550 523" fill="none" xmlns="http://www.w3.org/2000/svg">
<path d="M398.935 58.4288C439.471 88.5998 472.742 129.489 502.188 181.495C532.016 233.5 558.021 297.018 547.696 353.39C536.988 409.762 489.568 458.591 436.03 487.968C382.491 517.742 322.834 527.27 267.383 521.315C211.933 515.36 161.071 493.129 109.827 462.958C58.9658 432.787 7.72186 394.279 0.838344 346.641C-6.04517 299.002 31.0493 242.63 53.9944 185.464C76.9394 127.901 85.3526 69.1474 117.858 36.1976C150.364 3.24771 206.961 -4.29502 258.97 2.05676C310.979 8.01155 358.399 27.8609 398.935 58.4288Z" fill="#930BFF" fill-opacity="0.1"/>
</svg>
