<svg width="388" height="457" viewBox="0 0 388 457" fill="none" xmlns="http://www.w3.org/2000/svg">
<path d="M34.1433 253.868C33.8717 249.801 33.6621 245.729 33.4953 241.666" stroke="black" stroke-width="4.05" stroke-miterlimit="10"/>
<path d="M230.527 400.167H131.967" stroke="black" stroke-width="4.05" stroke-miterlimit="10"/>
<path d="M259.301 109.355C259.301 109.355 288.346 93.2005 312.988 124.72C321.039 135.021 326.533 148.689 326.921 162.792C327.098 169.674 326.156 176.531 324.147 182.996C322.102 189.596 318.432 193.964 315.611 199.841C311.285 208.904 320.329 210.508 325.183 214.9C328.409 217.843 331.469 221.03 334.344 224.442C340.823 232.063 346.524 240.549 351.331 249.728C360.849 268.011 366.581 288.676 368.061 310.052C369.524 331.128 368.403 354.015 359.226 372.738C354.811 381.755 348.161 390.598 339.982 394.802C329.118 400.382 316.915 400.172 305.306 400.172H280.602" stroke="black" stroke-width="4.05" stroke-miterlimit="10"/>
<path d="M138.226 319.964C137.252 328.126 135.801 337.49 134.198 346.863L132.309 347.498C126.261 349.499 119.839 349.277 113.902 346.863L116.377 336.955L101.308 285.314C101.308 285.314 112.827 280.927 122.287 277.669L123.373 277.614C128.541 278.898 139.192 283.719 139.526 301.775C139.549 302.644 139.526 303.558 139.526 304.554C141.027 310.381 140.43 315.517 138.226 319.964Z" fill="#930BFF"/>
<path d="M102.755 123.39C102.606 122.944 102.315 122.586 101.945 122.39C101.574 122.194 101.153 122.178 100.772 122.343C100.558 122.419 100.361 122.549 100.194 122.723C99.5965 123.294 99.4607 124.295 99.4413 125.245C99.387 127.416 99.2822 129.591 99.1464 131.753C99.1464 131.899 99.127 132.064 99.127 132.21C99.0416 133.951 99.1037 136.063 98.4752 137.58C98.4348 137.695 98.3658 137.794 98.2773 137.863C98.0678 137.977 97.8466 137.731 97.7108 137.507C97.3228 136.84 96.9348 136.186 96.5468 135.505C96.2403 134.961 95.895 134.372 95.3595 134.198C94.5641 133.938 93.8075 134.765 93.3691 135.606C91.9529 138.348 91.8171 142.84 94.0093 145.139C96.2015 147.437 91.2933 151.957 87.778 153.858C87.1894 154.248 86.5725 154.575 85.935 154.836C85.904 154.836 87.2038 155.179 87.1727 155.193C84.4373 156.314 81.5879 157.004 78.6988 157.245C75.2689 157.514 71.9243 157.007 69.4916 155.252C69.5963 154.795 70.4267 151.596 70.4771 151.139C70.6556 149.544 70.7836 147.963 70.8651 146.359C71.0125 143.347 71.0009 140.331 70.9039 137.328C70.5508 126.525 72.1843 117.449 75.9712 116.064C76.2699 115.959 76.5567 115.81 76.8248 115.621C78.532 114.51 79.4438 112.166 78.66 109.954C78.6057 109.803 78.5436 109.657 78.4893 109.497C78.428 109.34 78.3578 109.187 78.2798 109.04C85.6751 106.335 90.6958 108.213 95.7708 111.485C96.7365 112.394 97.6441 113.385 98.4868 114.451C100.473 116.991 101.934 120.038 102.755 123.353V123.39Z" fill="#930BFF"/>
<path d="M280.524 227.262H255.304V156.262C255.304 156.262 250.648 217.952 237.89 252.904H159.782C168.989 246.012 176.373 235.602 181.289 224.396C183.229 219.963 186.333 213.382 191.493 215.11C192.719 215.517 194.523 215.777 195.435 214.456C195.75 213.95 195.928 213.343 195.947 212.715C196.39 206.244 190.694 200.797 185.999 199.078C181.304 197.36 175.818 198.164 172.082 202.181C169.389 205.083 167.701 208.936 165.73 212.505C164.547 214.62 163.144 216.553 161.555 218.259C163.58 203.772 165.385 189.925 165.645 184.829C170.584 180.236 174.212 172.746 175.5 166.12C176.916 158.881 178.165 151.802 180.365 145.024L198.372 145.098C199.05 145.098 199.701 144.78 200.18 144.215C200.66 143.651 200.929 142.885 200.929 142.086V106.86C200.93 106.069 200.665 105.309 200.192 104.747C199.718 104.185 199.075 103.867 198.403 103.862L186.143 103.739C190.598 102.642 195.116 101.932 199.661 101.614C199.754 101.614 199.839 101.614 199.921 101.614C202.912 101.381 208.154 101.28 211.173 101.244C207.576 103.529 205.353 108.382 205.741 112.669C205.809 113.582 206.007 114.475 206.326 115.31C209.399 123.262 217.493 125.611 224.174 123.299C231.608 120.744 237.072 112.692 236.746 103.428C241.402 104.233 246.011 105.253 250.574 106.49C257.507 108.368 264.27 110.9 269.753 116.421C274.533 121.215 278.584 127.389 280.458 134.367C288.505 164.205 286.029 197.502 280.524 227.262Z" fill="#222222"/>
<path d="M165.847 184.829C165.281 195.733 163.822 206.628 162.239 217.495" stroke="black" stroke-width="4.05" stroke-miterlimit="10"/>
<path d="M180.568 145.024C178.364 151.802 177.119 158.881 175.702 166.119C174.403 172.723 170.782 180.236 165.847 184.829C161.703 188.682 156.628 190.496 151.196 188.065C143.91 184.792 141.353 175.333 140.46 166.992C139.301 156.607 139.23 146.093 140.251 135.688C141.279 138.38 145.481 146.569 158.514 144.417C158.864 144.725 159.284 144.901 159.721 144.924L180.568 145.024Z" fill="#222222"/>
<path d="M173.25 121.594C176.284 120.68 178.131 124.117 177.681 126.731C176.948 130.994 171.741 132.672 168.641 132.749C166.158 132.809 160.105 132.036 157.637 131.698" stroke="black" stroke-width="4.05" stroke-miterlimit="10"/>
<path d="M156.616 123.705C160.37 124.983 164.345 125.06 168.132 123.929C171.317 122.965 175.081 121.187 176.75 117.618C177.723 115.543 176.947 112.235 174.914 111.503C172.567 110.667 170.394 113.418 168.268 114.113C166.896 114.553 165.496 114.859 164.081 115.027C163.693 115.077 163.329 115.114 162.952 115.15C160.972 115.337 158.982 115.32 157.004 115.1C156.794 115.1 156.589 115.022 156.418 114.877C156.248 114.732 156.12 114.527 156.054 114.292C155.988 114.057 155.986 113.803 156.05 113.566C156.113 113.33 156.238 113.123 156.407 112.975L156.764 112.669" stroke="black" stroke-width="4.05" stroke-miterlimit="10"/>
<path d="M180.568 145.024C178.364 151.802 177.119 158.881 175.702 166.119C173.312 178.271 163.12 193.411 151.196 188.055C143.91 184.783 141.353 175.323 140.46 166.983C139.064 154.068 139.18 140.802 141.236 127.996C142.944 117.449 145.974 106.371 154.688 101.184L158.778 98.7759C159.753 98.1955 160.882 98.0877 161.924 98.4752C162.966 98.8632 163.838 99.716 164.353 100.851C164.667 101.556 164.834 102.34 164.838 103.136C164.842 103.252 164.834 103.369 164.815 103.483" stroke="black" stroke-width="4.05" stroke-miterlimit="10"/>
<path d="M263.631 244.157C265.738 244.08 267.847 244.143 269.948 244.344C271.663 244.509 273.44 244.605 275.073 245.359C276.419 245.989 277.824 247.493 277.754 249.33C277.626 252.931 273.622 252.904 271.426 252.904" stroke="black" stroke-width="4.05" stroke-miterlimit="10"/>
<path opacity="0.54" d="M225.947 240.725L244.207 185.624C244.433 184.556 244.449 183.442 244.254 182.365C244.059 181.289 243.659 180.279 243.082 179.413C242.506 178.546 241.77 177.846 240.929 177.365C240.089 176.885 239.166 176.636 238.232 176.64H165.722C164.097 176.644 162.52 177.292 161.245 178.479C159.97 179.665 159.071 181.323 158.692 183.184L138.679 238.271C138.462 239.334 138.452 240.441 138.651 241.51C138.85 242.578 139.252 243.58 139.826 244.439C140.401 245.298 141.134 245.993 141.969 246.47C142.805 246.947 143.721 247.195 144.65 247.196H218.913C220.53 247.195 222.1 246.557 223.375 245.385C224.65 244.213 225.555 242.572 225.947 240.725Z" fill="white"/>
<path d="M225.947 240.725L244.207 185.624C244.433 184.556 244.449 183.442 244.254 182.365C244.059 181.289 243.659 180.279 243.082 179.413C242.506 178.546 241.77 177.846 240.929 177.365C240.089 176.885 239.166 176.636 238.232 176.64H165.722C164.097 176.644 162.52 177.292 161.245 178.479C159.97 179.665 159.071 181.323 158.692 183.184L138.679 238.271C138.462 239.334 138.452 240.441 138.651 241.51C138.85 242.578 139.252 243.58 139.826 244.439C140.401 245.298 141.134 245.993 141.969 246.47C142.805 246.947 143.721 247.195 144.65 247.196H218.913C220.53 247.195 222.1 246.557 223.375 245.385C224.65 244.213 225.555 242.572 225.947 240.725Z" fill="#930BFF"/>
<path d="M225.947 240.725L244.207 185.624C244.433 184.556 244.449 183.442 244.254 182.365C244.059 181.289 243.659 180.279 243.082 179.413C242.506 178.546 241.77 177.846 240.929 177.365C240.089 176.885 239.166 176.636 238.232 176.64H165.722C164.097 176.644 162.52 177.292 161.245 178.479C159.97 179.665 159.071 181.323 158.692 183.184L138.679 238.271C138.462 239.334 138.452 240.441 138.651 241.51C138.85 242.578 139.252 243.58 139.826 244.439C140.401 245.298 141.134 245.993 141.969 246.47C142.805 246.947 143.721 247.195 144.65 247.196H218.913C220.53 247.195 222.1 246.557 223.375 245.385C224.65 244.213 225.555 242.572 225.947 240.725Z" stroke="black" stroke-width="4.05" stroke-linecap="square" stroke-linejoin="round"/>
<path d="M223.275 238.495L240.122 187.663C240.33 186.679 240.346 185.652 240.167 184.66C239.988 183.667 239.62 182.737 239.09 181.937C238.56 181.138 237.882 180.492 237.108 180.048C236.335 179.603 235.485 179.372 234.624 179.373H167.713C166.211 179.372 164.753 179.967 163.573 181.063C162.393 182.158 161.561 183.689 161.21 185.41L142.784 236.232C142.585 237.213 142.578 238.234 142.762 239.219C142.947 240.203 143.317 241.126 143.847 241.917C144.377 242.709 145.053 243.348 145.823 243.789C146.593 244.229 147.438 244.458 148.294 244.458H216.787C218.279 244.46 219.728 243.874 220.903 242.793C222.079 241.712 222.914 240.199 223.275 238.495Z" fill="#930BFF"/>
<path d="M172.539 188.741C173.428 187.174 174.867 186.456 175.783 187.183C176.699 187.909 176.699 189.737 175.814 191.296C175.674 191.536 175.519 191.762 175.348 191.972L181.921 208.319C182.969 207.496 184.121 207.291 184.951 207.94C185.218 208.169 185.438 208.463 185.597 208.802C185.757 209.142 185.852 209.518 185.875 209.905L190.368 208.122L194.294 206.564L195.575 206.07C195.737 205.502 195.961 204.962 196.242 204.462C197.488 202.255 199.525 201.263 200.793 202.268C202.062 203.274 202.078 205.81 200.867 207.999L208.356 220.041C209.989 218.464 211.91 217.975 213.241 219.017C215.052 220.439 215.08 224.145 213.303 227.289C213.229 227.417 213.147 227.517 213.074 227.636L218.056 235.661L218.102 235.739C218.357 236.192 218.449 236.745 218.357 237.277C218.265 237.81 217.998 238.277 217.613 238.577C217.229 238.877 216.759 238.985 216.307 238.877C215.856 238.769 215.459 238.454 215.204 238.001L210.781 230.136C209.38 231.091 207.89 231.274 206.8 230.419C205.069 229.048 204.984 225.63 206.528 222.582L199.362 209.841C198.303 210.686 197.135 210.901 196.297 210.247C195.831 209.858 195.514 209.269 195.412 208.607L194.876 208.78L190.884 210.065L185.77 211.692C185.611 212.413 185.348 213.098 184.994 213.716C183.749 215.919 181.712 216.915 180.443 215.91C179.174 214.904 179.155 212.322 180.4 210.115C180.583 209.791 180.788 209.485 181.013 209.201L174.755 192.548C174.002 193.156 173.168 193.311 172.57 192.84C171.67 192.137 171.655 190.29 172.539 188.741Z" fill="#222222"/>
<path d="M220.15 189.618H229.85C230.294 189.618 230.728 189.465 231.099 189.18C231.47 188.894 231.763 188.488 231.942 188.01C231.995 187.865 232.024 187.71 232.027 187.553C232.026 187.241 231.92 186.942 231.733 186.722C231.545 186.502 231.291 186.378 231.026 186.378H220.717C221.202 187.333 220.957 188.672 220.15 189.618Z" fill="#222222"/>
<path d="M213.88 188.448C213.882 188.759 213.987 189.057 214.174 189.276C214.361 189.495 214.614 189.618 214.878 189.618H220.15C220.958 188.672 221.202 187.333 220.717 186.369H216.061C215.618 186.369 215.184 186.52 214.813 186.805C214.442 187.09 214.149 187.496 213.97 187.973C213.913 188.123 213.882 188.284 213.88 188.448Z" fill="#930BFF"/>
<path d="M216.306 189.618C216.334 189.681 216.366 189.74 216.403 189.797C217.093 190.912 218.595 191.017 219.759 190.016C219.897 189.896 220.027 189.763 220.147 189.618C220.954 188.672 221.198 187.333 220.713 186.369C220.688 186.306 220.657 186.246 220.62 186.191C219.934 185.071 218.432 184.975 217.268 185.967C217.13 186.09 217.001 186.224 216.88 186.369C216.073 187.32 215.828 188.65 216.306 189.618Z" fill="white"/>
<path d="M211.46 195.619C211.462 195.93 211.569 196.228 211.756 196.447C211.943 196.666 212.197 196.789 212.461 196.789H222.639C222.146 195.82 222.39 194.504 223.197 193.54H213.625C213.181 193.54 212.747 193.692 212.375 193.978C212.003 194.263 211.71 194.67 211.53 195.148C211.481 195.299 211.458 195.458 211.46 195.619Z" fill="#930BFF"/>
<path d="M222.623 196.789H227.411C227.854 196.789 228.287 196.638 228.658 196.354C229.029 196.07 229.323 195.665 229.503 195.189C229.557 195.045 229.588 194.89 229.592 194.732C229.592 194.578 229.567 194.425 229.517 194.282C229.467 194.14 229.394 194.01 229.301 193.9C229.208 193.791 229.098 193.705 228.977 193.646C228.856 193.587 228.726 193.557 228.595 193.558H223.182C222.375 194.49 222.131 195.82 222.623 196.789Z" fill="#222222"/>
<path d="M222.622 196.789C222.645 196.852 222.673 196.912 222.708 196.967C223.394 198.087 224.896 198.187 226.06 197.191C226.197 197.068 226.327 196.934 226.448 196.789C227.247 195.838 227.492 194.504 227.015 193.54C226.986 193.478 226.955 193.418 226.921 193.361C226.227 192.246 224.725 192.146 223.561 193.147C223.423 193.265 223.294 193.397 223.173 193.54C222.374 194.49 222.13 195.82 222.622 196.789Z" fill="white"/>
<path d="M219.22 203.909H225.312C225.755 203.908 226.189 203.756 226.561 203.471C226.932 203.187 227.226 202.782 227.407 202.305C227.46 202.16 227.489 202.005 227.492 201.848C227.492 201.535 227.387 201.234 227.199 201.012C227.011 200.791 226.757 200.665 226.491 200.664H219.798C220.279 201.628 220.031 202.958 219.22 203.909Z" fill="#930BFF"/>
<path d="M209.356 202.743C209.357 202.897 209.383 203.049 209.433 203.191C209.484 203.332 209.557 203.461 209.65 203.57C209.743 203.678 209.853 203.763 209.973 203.821C210.094 203.88 210.223 203.91 210.353 203.909H219.219C220.018 202.958 220.267 201.624 219.786 200.655H211.537C211.093 200.654 210.658 200.807 210.287 201.094C209.915 201.38 209.622 201.788 209.445 202.268C209.388 202.418 209.358 202.58 209.356 202.743Z" fill="#222222"/>
<path d="M215.386 203.909C215.414 203.971 215.447 204.031 215.483 204.087C216.17 205.207 217.668 205.303 218.835 204.306C218.973 204.186 219.103 204.053 219.223 203.909C220.023 202.958 220.271 201.624 219.79 200.655C219.764 200.592 219.733 200.532 219.697 200.477C219.002 199.366 217.505 199.27 216.337 200.262C216.199 200.382 216.07 200.513 215.949 200.655C215.149 201.606 214.901 202.945 215.386 203.909Z" fill="white"/>
<path d="M179.843 237.489H185.938C186.381 237.488 186.814 237.336 187.185 237.052C187.556 236.767 187.849 236.362 188.029 235.885C188.083 235.741 188.111 235.585 188.115 235.428C188.115 235.115 188.009 234.816 187.821 234.595C187.634 234.373 187.379 234.249 187.114 234.249H180.421C180.89 235.209 180.642 236.539 179.843 237.489Z" fill="#930BFF"/>
<path d="M155.655 236.324C155.655 236.477 155.681 236.629 155.732 236.771C155.782 236.913 155.856 237.041 155.948 237.15C156.041 237.258 156.151 237.343 156.271 237.402C156.392 237.46 156.522 237.49 156.652 237.489H179.843C180.642 236.539 180.89 235.204 180.409 234.24H157.835C157.391 234.239 156.958 234.391 156.586 234.677C156.215 234.963 155.922 235.37 155.744 235.849C155.688 235.998 155.658 236.16 155.655 236.324Z" fill="#222222"/>
<path d="M175.997 237.489C176.025 237.551 176.058 237.611 176.094 237.667C176.781 238.787 178.279 238.883 179.447 237.891C179.583 237.768 179.713 237.634 179.835 237.489C180.634 236.539 180.882 235.204 180.401 234.24C180.375 234.176 180.344 234.116 180.308 234.062C179.613 232.947 178.116 232.851 176.948 233.842C176.81 233.962 176.68 234.095 176.56 234.24C175.764 235.186 175.512 236.525 175.997 237.489Z" fill="white"/>
<path d="M26.4541 255.088C26.4541 255.088 13.6501 323.213 46.5875 337.444C79.5249 351.675 168.497 338.308 131.521 289.153C94.5443 239.998 26.4541 255.088 26.4541 255.088Z" fill="#222222"/>
<path d="M186.27 103.739C190.747 102.639 195.285 101.926 199.85 101.605C199.947 101.605 200.029 101.605 200.114 101.605C203.113 101.372 208.367 101.271 211.366 101.235" stroke="black" stroke-width="4.05" stroke-miterlimit="10"/>
<path d="M164.082 115.013C164.051 115.036 164.031 115.064 164 115.087" stroke="black" stroke-width="4.05" stroke-miterlimit="10"/>
<path d="M215.127 86.373C212.838 87.7897 210.208 86.83 209.199 84.417" stroke="black" stroke-width="4.05" stroke-miterlimit="10"/>
<path d="M201.838 51.938C201.735 54.0347 202.191 56.1168 203.144 57.8918C204.097 59.6672 205.498 61.0465 207.15 61.8366C207.499 61.0812 208 60.4382 208.609 59.9629C211.181 58.0024 210.723 63.2396 217.707 61.8595C227.388 59.9355 229.855 63.9068 229.855 63.9068C230.069 64.2541 229.467 66.5209 229.382 66.9367C228.994 69.3725 228.606 71.7946 228.253 74.2487C228.025 75.7353 227.795 77.2128 227.562 78.6816C227.739 78.4805 227.925 78.2927 228.121 78.1195C229.712 75.1947 232.044 71.9135 234.585 74.5915C235.095 75.149 235.486 75.8414 235.726 76.6114C236.89 80.336 234.663 82.7306 232.059 84.1656C231.373 84.6551 230.643 85.0549 229.883 85.3584C230.011 86.2998 230.542 90.0518 230.542 90.0609C230.597 90.4448 237.061 85.7514 237.6 85.1802C238.574 83.6625 239.326 81.9633 239.823 80.1532C241.833 72.6858 241.492 63.0339 237.445 56.8919C236.44 55.3701 237.111 54.4926 237.402 53.0119C237.416 52.932 237.409 52.8492 237.383 52.7743C237.357 52.6989 237.312 52.6349 237.254 52.5901C237.196 52.5453 237.129 52.522 237.059 52.523C236.99 52.5243 236.923 52.5495 236.867 52.5961C234.686 54.2093 230.74 52.5595 230.74 52.5595C217.936 43.5016 211.375 49.1046 208.236 49.3879C206.963 49.4908 205.699 49.0671 204.663 48.1906C204.48 48.6147 204.203 48.9721 203.862 49.2248C203.52 49.4775 203.126 49.616 202.723 49.6256L202.598 50.4116C202.503 51.0089 202.234 51.5486 201.838 51.938Z" fill="#930BFF"/>
<path d="M207.157 61.8549C205.505 61.0652 204.104 59.686 203.152 57.9106C202.199 56.1351 201.742 54.053 201.846 51.9563C201.883 51.1511 201.982 50.3513 202.141 49.5662L202.253 49.5936C202.406 49.6343 202.562 49.648 202.719 49.6348C203.122 49.6256 203.516 49.4871 203.858 49.2344C204.199 48.9817 204.476 48.6239 204.659 48.1998C204.765 47.964 204.84 47.7094 204.88 47.4457L205.477 43.6207C205.477 43.6207 207.417 46.7145 210.521 46.4266C213.625 46.1387 220.187 40.536 233.025 49.5982C233.025 49.5982 236.106 50.9372 238.287 49.324C238.343 49.2778 238.41 49.2522 238.48 49.2513C238.549 49.2504 238.616 49.2737 238.674 49.3185C238.731 49.3633 238.776 49.4273 238.803 49.5022C238.829 49.5776 238.836 49.6603 238.822 49.7399C238.531 51.216 238.725 52.4087 239.73 53.9306C243.777 60.0726 244.118 69.7245 242.109 77.1919C241.229 80.2867 239.666 83.0497 237.581 85.1985C237.041 85.7697 230.577 90.4631 230.523 90.0793C230.523 90.0793 229.991 86.3182 229.863 85.3767L229.832 85.1619L230.015 85.098C230.706 84.8462 231.382 84.5409 232.04 84.184C234.643 82.749 236.882 80.3543 235.707 76.6297C235.467 75.8602 235.076 75.1678 234.566 74.6098C232.024 71.9318 229.693 75.213 228.102 78.1378C227.794 78.6931 227.541 79.2881 227.349 79.911C227.411 79.5088 227.473 79.1158 227.539 78.7137C227.772 77.2421 228.002 75.7646 228.23 74.2808C228.618 71.8404 228.979 69.4183 229.359 66.9688C229.429 66.5529 230.046 64.2862 229.832 63.9389C229.832 63.9389 227.365 59.9675 217.684 61.8915C210.7 63.2625 211.158 58.0344 208.585 59.9949C207.977 60.4702 207.476 61.1137 207.126 61.8686C207.018 62.115 206.922 62.3681 206.839 62.6273C206.825 62.6597 206.814 62.6935 206.804 62.7278C206.63 63.2945 206.471 63.8657 206.316 64.4233C204.864 69.857 203.906 75.7249 204.418 81.4328C205.043 88.3518 209.323 96.4864 216.132 95.7963C218.274 95.5006 220.364 94.8097 222.324 93.749" stroke="black" stroke-width="4.05" stroke-miterlimit="10"/>
<path d="M207.9 76.6019C208.566 76.5795 209.088 75.7925 209.065 74.8438C209.042 73.8951 208.484 73.1442 207.818 73.1666C207.152 73.1886 206.63 73.9755 206.653 74.9242C206.676 75.873 207.234 76.6238 207.9 76.6019Z" fill="black"/>
<path d="M217.018 79.4864C217.684 79.464 218.206 78.6771 218.183 77.7288C218.16 76.7801 217.602 76.0288 216.936 76.0511C216.27 76.0735 215.748 76.8605 215.771 77.8088C215.794 78.7575 216.352 79.5088 217.018 79.4864Z" fill="black"/>
<path d="M213.081 80.1213C213.081 80.1213 209.554 81.0353 209.911 78.9057C210.02 78.2385 210.904 71.6851 210.904 71.6851C210.904 71.6851 209.259 67.7823 204.956 68.6917" stroke="black" stroke-width="4.05" stroke-miterlimit="10"/>
<path d="M214.666 71.1001C214.666 71.1001 220.257 69.9804 222.398 75.2405" stroke="black" stroke-width="4.05" stroke-miterlimit="10"/>
<path d="M211.428 101.18C207.024 103.922 204.673 110.521 206.516 115.297C209.589 123.253 217.679 125.593 224.364 123.294C231.798 120.735 237.261 112.664 236.935 103.41" stroke="black" stroke-width="4.05" stroke-miterlimit="10"/>
<path d="M238.092 252.899C250.861 217.948 255.497 156.257 255.497 156.257V242.329C255.497 243.717 255.728 245.092 256.179 246.375C256.63 247.657 257.291 248.823 258.125 249.804C258.958 250.786 259.948 251.565 261.037 252.096C262.126 252.627 263.293 252.9 264.472 252.899H292.796C293.858 252.919 294.888 252.476 295.689 251.655C296.491 250.834 297.007 249.694 297.137 248.453C297.194 247.769 297.129 247.078 296.946 246.426C296.762 245.774 296.465 245.175 296.073 244.666C295.68 244.158 295.202 243.751 294.668 243.474C294.135 243.197 293.558 243.054 292.974 243.055H281.373C280.91 243.054 280.454 242.927 280.039 242.687C279.624 242.446 279.261 242.097 278.979 241.666C278.695 241.234 278.5 240.733 278.407 240.199C278.313 239.665 278.324 239.114 278.44 238.586C285.424 206.139 289.742 168.053 280.651 134.349C278.773 127.393 274.726 121.196 269.946 116.407C264.46 110.886 257.697 108.355 250.768 106.481C246.197 105.247 241.586 104.226 236.935 103.419C236.922 103.425 236.907 103.425 236.893 103.419C236.862 103.419 236.831 103.419 236.811 103.419H236.78H236.737H236.675" stroke="black" stroke-width="4.05" stroke-miterlimit="10"/>
<path d="M234.01 87.8903L233.498 98.808C233.449 99.8751 233.734 100.926 234.298 101.763C234.861 102.6 235.666 103.165 236.559 103.351H236.676C236.696 103.344 236.718 103.344 236.738 103.351H236.757H236.812" stroke="black" stroke-width="4.05" stroke-miterlimit="10"/>
<path d="M236.893 103.401H236.812H236.78H236.757H236.738H236.676H236.559C235.666 103.215 234.861 102.65 234.298 101.813C233.734 100.976 233.449 99.9249 233.498 98.8583L234.01 87.9406" stroke="black" stroke-width="4.05" stroke-miterlimit="10"/>
<path d="M212.161 95.1154C211.909 94.9965 212.161 107.308 205.926 112.655" stroke="black" stroke-width="4.05" stroke-miterlimit="10"/>
<path d="M128.684 252.904H108.71" stroke="black" stroke-width="4.05" stroke-miterlimit="10"/>
<path d="M323.821 252.904H159.782" stroke="black" stroke-width="4.05" stroke-miterlimit="10"/>
<path d="M70.9066 137.315C71.099 141.924 70.959 146.544 70.4876 151.125C69.8823 156.509 65.657 163.35 64.7413 168.674C63.4337 176.333 65.4125 184.249 68.1285 191.36C71.411 199.956 76.583 208.602 76.0786 218.446C75.8202 222.733 74.7369 226.895 72.9114 230.616C71.0855 234.337 68.565 237.521 65.5406 239.925C61.3975 243.189 56.6655 245.271 51.72 246.003C51.0294 246.099 50.3271 246.177 49.6248 246.2C49.2368 246.2 48.8488 246.149 48.4608 246.113C35.3075 244.801 21.8167 232.983 21.8478 216.531C21.8478 206.02 28.63 197.794 29.7746 187.594C30.4769 181.356 28.9249 174.876 30.3605 168.82C32.6885 159.15 41.6863 153.876 45.6284 144.974C48.5306 138.402 49.004 130.734 51.301 123.842C54.4981 114.245 59.6042 103.277 66.5882 102.363C68.6147 102.634 70.5737 103.387 72.3461 104.575C76.6762 107.317 77.7781 107.491 78.6588 109.936C79.559 112.491 78.2165 115.219 75.9739 116.037C72.187 117.449 70.5535 126.511 70.9066 137.315Z" fill="#930BFF"/>
<path d="M74.7129 106.061C86.0813 102.181 93.3059 107.889 98.474 114.469C103.642 121.05 103.402 128.522 103.402 128.522" stroke="black" stroke-width="4.05" stroke-miterlimit="10"/>
<path d="M109.974 234.77C109.803 245.231 108.678 255.64 106.618 265.819" stroke="black" stroke-width="4.05" stroke-miterlimit="10"/>
<path d="M138.225 319.964C134.061 328.4 124.187 334.391 112.104 338.121C90.6636 344.738 62.2775 344.222 46.5945 337.44C13.6379 323.213 26.4496 255.088 26.4496 255.088C26.4496 255.088 83.4507 242.452 121.459 277.938C125.09 281.319 128.461 285.07 131.532 289.148C135.734 294.747 138.314 299.87 139.532 304.549C141.026 310.381 140.428 315.517 138.225 319.964Z" stroke="black" stroke-width="4.05" stroke-miterlimit="10"/>
<path d="M116.376 336.969C116.376 336.969 96.406 402.26 129.956 418.936C163.507 435.612 6.7508 437.833 41.3526 418.936C75.9545 400.039 56.0656 340.959 56.0656 340.959" stroke="black" stroke-width="4.05" stroke-miterlimit="10"/>
<path d="M157 115.086C156.585 113.592 156.755 108.396 156.891 105.462C156.917 104.908 157.126 104.387 157.472 104.011C157.818 103.635 158.275 103.432 158.746 103.446L198.605 103.858C199.277 103.865 199.92 104.185 200.393 104.747C200.866 105.309 201.131 106.069 201.131 106.86V142.09C201.131 142.486 201.065 142.877 200.936 143.243C200.807 143.608 200.618 143.939 200.38 144.218C200.142 144.497 199.86 144.718 199.549 144.868C199.239 145.018 198.906 145.095 198.57 145.093L159.728 144.924C159.165 144.896 158.633 144.614 158.243 144.135C157.853 143.657 157.636 143.019 157.636 142.355V139.668C160.399 141.186 165.621 141.652 165.621 141.652C167.48 141.592 170.417 141.327 172.027 140.24C173.502 139.243 175.364 137.813 175.616 135.647C175.714 134.809 175.525 133.96 175.093 133.285C174.66 132.61 174.018 132.164 173.308 132.046C172.88 131.945 172.438 131.982 172.027 132.151" stroke="black" stroke-width="4.05" stroke-miterlimit="10"/>
<path d="M195.901 212.715C195.883 213.344 195.703 213.951 195.385 214.456C194.473 215.777 192.669 215.517 191.443 215.11C186.287 213.382 183.19 219.963 181.243 224.396C176.323 235.602 168.943 246.012 159.736 252.904C159.138 253.361 158.529 253.79 157.912 254.211C148.914 260.325 137.255 259.188 128.552 252.84L139.68 220.644L140.782 221.682C147.502 227.929 155.774 224.424 161.501 218.259C163.091 216.553 164.493 214.62 165.676 212.505C167.647 208.936 169.335 205.083 172.031 202.181C175.764 198.164 181.227 197.378 185.945 199.078C190.663 200.778 196.328 206.244 195.901 212.715Z" fill="white"/>
<path d="M195.854 210.435C195.854 210.435 194.589 202.547 183.186 208.703" stroke="black" stroke-width="4.05" stroke-miterlimit="10"/>
<path d="M189.511 200.966C189.511 200.966 182.403 198.288 178.445 204.686" stroke="black" stroke-width="4.05" stroke-miterlimit="10"/>
<path d="M46.0245 246.127C47.9226 246.326 49.8328 246.289 51.7243 246.017C56.6685 245.275 61.3986 243.189 65.5409 239.925C68.5654 237.52 71.0862 234.337 72.9118 230.616C74.7377 226.895 75.8206 222.733 76.079 218.446C76.5834 208.598 71.423 199.951 68.1289 191.355C65.4129 184.24 63.4341 176.324 64.7455 168.674C65.6573 163.346 69.8749 156.509 70.4841 151.121C70.9578 146.54 71.1006 141.92 70.9109 137.31C70.5578 126.502 72.1874 117.431 75.9743 116.051C78.2169 115.233 79.5633 112.5 78.6592 109.95C77.794 107.5 76.6804 107.354 72.3465 104.58C61.0479 97.341 53.1909 110.836 48.8531 123.847C46.5522 130.743 46.0866 138.402 43.1805 144.974C39.2384 153.881 30.2213 159.141 27.9166 168.83C26.4771 174.88 28.0291 181.365 27.3307 187.594C26.19 197.79 19.4194 206.011 19.4 216.531C19.369 232.979 32.8753 244.806 46.0245 246.127Z" stroke="black" stroke-width="4.05" stroke-miterlimit="10"/>
<path d="M138.225 319.964C137.251 328.126 135.8 337.49 134.201 346.863C129.67 373.428 123.904 400.154 123.904 400.154" stroke="black" stroke-width="4.05" stroke-miterlimit="10"/>
<path d="M139.517 304.549C139.537 303.553 139.548 302.639 139.517 301.771C139.172 283.034 127.734 278.555 122.814 277.481C122.08 277.312 121.337 277.201 120.591 277.148" stroke="black" stroke-width="4.05" stroke-miterlimit="10"/>
<path d="M125.611 392.051C126.244 391.595 126.97 391.345 127.712 391.328C128.454 391.311 129.187 391.528 129.835 391.956C130.482 392.384 131.021 393.008 131.396 393.763C131.771 394.517 131.968 395.377 131.967 396.251C131.967 396.315 131.967 396.393 131.967 396.484C131.905 398.741 131.4 400.95 130.492 402.939C129.584 404.927 128.297 406.641 126.732 407.946L121.339 412.465" stroke="black" stroke-width="4.05" stroke-miterlimit="10"/>
<path d="M64.3459 174.716C65.0987 174.355 65.8669 174.035 66.6429 173.738C68.2764 170.182 68.0242 162.4 67.869 159.571L69.5025 155.234C74.011 158.497 79.9785 157.272 85.5152 155.001C86.2928 154.681 87.049 154.293 87.7773 153.84C91.2926 151.939 96.2202 147.442 94.0086 145.12C91.797 142.799 91.9522 138.329 93.3684 135.587C93.799 134.746 94.5634 133.919 95.3588 134.18C95.8942 134.353 96.2396 134.943 96.5461 135.487C96.9341 136.168 97.3221 136.821 97.7101 137.489C97.8459 137.712 98.067 137.946 98.2766 137.845C98.365 137.776 98.4341 137.678 98.4744 137.562C99.1573 135.907 99.0293 133.535 99.1457 131.721C99.2815 129.56 99.3862 127.384 99.4406 125.213C99.4716 124.016 99.6811 122.732 100.771 122.312C100.991 122.212 101.228 122.172 101.463 122.196C101.698 122.22 101.925 122.306 102.127 122.449C102.33 122.592 102.502 122.787 102.631 123.019C102.76 123.252 102.841 123.517 102.87 123.792C103.664 129.045 103.78 134.407 103.216 139.7C102.68 145.244 101.714 151.125 98.6956 155.595C96.9756 158.173 94.6713 160.125 92.0492 161.225C89.5116 162.262 89.5931 165.868 89.5931 169.031V174.282C97.3958 176.146 104.725 178.395 110.786 184.793C114.794 189.108 118.565 193.72 122.076 198.599C133.131 213.876 135.521 216.741 140.844 221.682C147.564 227.929 155.84 224.424 161.563 218.259C163.15 216.553 164.55 214.62 165.73 212.505C167.701 208.936 169.389 205.083 172.082 202.181C175.818 198.164 181.281 197.378 185.999 199.078C190.718 200.778 196.39 206.244 195.94 212.715C195.921 213.343 195.743 213.95 195.428 214.456C194.516 215.777 192.712 215.517 191.486 215.11C186.325 213.383 183.233 219.963 181.281 224.396C176.365 235.602 168.982 246.012 159.775 252.904C159.177 253.361 158.572 253.79 157.951 254.211C147.665 261.203 133.876 258.708 125.029 249.801L103.689 228.464" stroke="black" stroke-width="4.05" stroke-miterlimit="10"/>
<path d="M66.6437 173.738C66.6437 173.738 76.8364 170.027 89.5939 174.295" stroke="black" stroke-width="4.05" stroke-miterlimit="10"/>
<path d="M157.637 139.668C157.637 139.668 157.715 155.206 160.861 161.188" stroke="black" stroke-width="4.05" stroke-miterlimit="10"/>
<path d="M167.978 68.55C165.557 73.417 165.669 76.8719 166.298 82.4793C166.35 82.9569 166.286 83.4418 166.114 83.8787C165.942 84.3155 165.669 84.6862 165.325 84.948C164.982 85.2099 164.583 85.352 164.174 85.3584C163.766 85.3644 163.364 85.2346 163.015 84.9837C149.047 75.5146 135.975 83.0049 119.299 78.3663C113.177 76.6708 105.545 73.1657 100.31 67.5217C98.5741 64.484 97.6472 60.9053 97.6487 57.2438C97.6487 41.893 115.454 29.4443 137.407 29.4443C151.48 29.4443 163.842 34.5582 170.911 42.2632C170.911 42.2632 170.911 42.2632 170.93 42.2906C172.704 45.2941 173.672 48.8555 173.708 52.5138C173.708 58.039 170.232 63.98 167.978 68.55Z" fill="#222222"/>
<path d="M173.646 52.5231V52.9115C173.565 58.2904 171.28 63.29 168.567 67.6178C166.752 70.5152 164.598 73.7279 165.11 77.2788C165.335 78.8417 166.076 80.263 166.274 81.8488C166.472 83.4345 165.751 85.3768 164.404 85.4591C163.551 85.5093 162.821 84.7918 162.146 84.1749C158.138 80.5189 152.931 79.1479 147.868 78.9102C142.804 78.6726 137.749 79.4541 132.681 79.6232C125.379 79.8699 117.961 78.796 111.213 75.5102C105.149 72.5305 99.6198 67.6863 95.9804 61.2381C92.4069 54.8812 94.5215 45.6588 98.3316 40.1337C101.909 34.9513 107.085 31.6335 112.397 29.2982C126.679 23.0145 142.983 23.1653 157.071 30.0431C161.254 32.0631 165.289 34.732 168.432 38.5799C171.497 42.3319 173.619 47.3315 173.646 52.5231Z" stroke="black" stroke-width="4.05" stroke-miterlimit="10"/>
<path d="M115.034 58.6376C118.064 58.6376 120.521 55.7448 120.521 52.1756C120.521 48.6069 118.064 45.7136 115.034 45.7136C112.004 45.7136 109.548 48.6069 109.548 52.1756C109.548 55.7448 112.004 58.6376 115.034 58.6376Z" fill="white"/>
<path d="M132.773 58.6376C135.803 58.6376 138.26 55.7448 138.26 52.1756C138.26 48.6069 135.803 45.7136 132.773 45.7136C129.743 45.7136 127.287 48.6069 127.287 52.1756C127.287 55.7448 129.743 58.6376 132.773 58.6376Z" fill="white"/>
<path d="M150.859 58.6376C153.889 58.6376 156.345 55.7448 156.345 52.1756C156.345 48.6069 153.889 45.7136 150.859 45.7136C147.829 45.7136 145.373 48.6069 145.373 52.1756C145.373 55.7448 147.829 58.6376 150.859 58.6376Z" fill="white"/>
<g opacity="0.54">
<path opacity="0.54" d="M256.281 323.099L254.05 361.03C253.03 363.32 251.755 365.439 250.259 367.332C250.096 367.263 249.933 367.19 249.774 367.103C249.475 366.985 249.181 366.843 248.901 366.706C244.381 364.371 240.947 360.02 239.946 355.089C239.042 350.77 239.857 346.104 238.111 342.046C235.981 337.047 230.188 333.912 229.478 328.272C228.811 322.994 232.846 318.154 232.194 312.981C231.418 307.131 225.346 303.663 224.209 297.95C223.499 294.399 224.135 290.323 223.867 286.667C223.572 282.577 222.99 278.523 222.125 274.547C231.115 273.78 240.264 279.615 243.178 287.974C245.557 294.829 244.125 302.813 247.834 309.046C249.86 312.423 253.231 314.951 254.977 318.483C255.516 319.586 255.908 320.778 256.141 322.02C256.141 322.107 256.141 322.194 256.168 322.263C256.168 322.404 256.199 322.505 256.215 322.61C256.254 322.925 256.281 323.099 256.281 323.099Z" fill="#930BFF"/>
<path opacity="0.54" d="M256.297 323.067C256.297 323.067 256.27 322.912 256.239 322.61C256.266 322.73 256.285 322.852 256.297 322.976C256.303 322.99 256.305 323.005 256.305 323.021C256.305 323.037 256.303 323.052 256.297 323.067Z" fill="#930BFF"/>
</g>
<path d="M285.999 308.265C284.835 313.191 278.46 316.185 277.692 321.234C277.013 325.713 281.211 329.89 280.517 334.437C279.776 339.313 273.742 342.01 271.527 346.319C269.722 349.82 270.564 353.846 269.633 357.57C268.555 361.802 264.977 365.582 260.259 367.583C259.964 367.707 259.685 367.826 259.386 367.931C259.223 367.986 259.045 368.054 258.882 368.104C257.33 366.592 255.526 363.927 254.063 361.053L256.282 323.099C258.013 321.372 259.991 319.79 261.369 317.871C262.863 315.801 263.557 313.539 263.999 311.167H264.046V310.906C264.694 307.163 264.752 303.242 266.246 299.691C269.276 292.466 278.786 287.43 288.145 288.093C287.262 291.506 286.657 295.01 286.34 298.558C286.073 301.698 286.732 305.217 285.999 308.265Z" fill="#930BFF"/>
<path d="M264.06 310.874V311.135H264.014L264.06 310.874Z" fill="#930BFF"/>
<path d="M264.061 310.874L264.014 311.135C263.572 313.507 262.877 315.769 261.384 317.839C260.006 319.758 258.027 321.34 256.297 323.067C256.304 323.043 256.304 323.018 256.297 322.994C256.284 322.871 256.265 322.748 256.239 322.628C256.239 322.523 256.208 322.423 256.192 322.281C256.192 322.212 256.192 322.126 256.165 322.039C255.932 320.797 255.54 319.604 255.001 318.502C253.255 314.969 249.883 312.442 247.858 309.065C247.858 309.065 248.774 291.264 256.506 285.849C263.84 280.731 264.061 307.913 264.061 310.874Z" fill="#930BFF"/>
<path d="M264.06 310.874V311.135H264.014L264.06 310.874Z" fill="#930BFF"/>
<path d="M256.282 322.994V323.099C256.282 323.099 256.255 322.944 256.224 322.642C256.25 322.758 256.269 322.875 256.282 322.994Z" fill="#930BFF"/>
<path d="M255.591 323.099C257.313 321.371 259.316 319.767 260.697 317.853C264.577 312.465 263.079 305.578 265.566 299.669C268.593 292.453 278.11 287.421 287.465 288.079C286.576 291.491 285.971 294.995 285.657 298.544C285.377 301.707 286.045 305.221 285.311 308.283C284.12 313.209 277.769 316.198 276.997 321.248C276.31 325.722 280.52 329.899 279.825 334.442C279.084 339.322 273.055 342.019 270.835 346.324C269.023 349.829 269.873 353.846 268.934 357.58C267.797 362.081 263.84 366.057 258.683 367.935C258.52 367.999 258.342 368.068 258.175 368.118C256.623 366.605 254.819 363.941 253.352 361.062" stroke="black" stroke-width="4.05" stroke-miterlimit="10"/>
<path d="M281.754 293.732C267.805 311.414 261.244 348.691 258.691 367.94C258.481 369.562 258.303 371.047 258.132 372.387" stroke="black" stroke-width="4.05" stroke-miterlimit="10"/>
<path d="M283.042 383.226L276.644 427.825C276.492 429.046 275.977 430.165 275.192 430.983C274.406 431.8 273.4 432.263 272.352 432.29H238.798C237.74 432.261 236.725 431.789 235.937 430.957C235.148 430.124 234.638 428.988 234.499 427.752L228.582 383.222L283.042 383.226Z" stroke="black" stroke-width="4.05" stroke-miterlimit="10"/>
<path d="M289.137 378.245C289.079 379.568 288.6 380.816 287.794 381.74C286.988 382.664 285.916 383.195 284.791 383.227H226.937C225.825 383.195 224.763 382.675 223.961 381.768C223.158 380.862 222.672 379.634 222.599 378.327C222.354 375.128 224.364 372.386 226.937 372.386H284.791C287.34 372.391 289.342 375.092 289.137 378.245Z" stroke="black" stroke-width="4.05" stroke-miterlimit="10"/>
<path d="M249.573 367.323C252.056 364.421 255.098 357.95 256.444 352.667C257.554 348.312 255.602 343.828 255.152 339.359C254.454 332.362 257.403 324.84 254.295 318.497C252.56 314.96 249.189 312.446 247.163 309.06C243.435 302.822 244.866 294.843 242.484 288.001C239.57 279.634 230.425 273.798 221.439 274.575C222.298 278.552 222.88 282.606 223.181 286.694C223.449 290.35 222.793 294.427 223.515 297.973C224.652 303.686 230.751 307.145 231.5 312.999C232.159 318.172 228.12 323.017 228.784 328.286C229.498 333.934 235.283 337.056 237.421 342.064C239.159 346.127 238.344 350.789 239.244 355.103C240.373 360.495 244.374 365.234 249.573 367.323Z" stroke="black" stroke-width="4.05" stroke-miterlimit="10"/>
<path d="M226.925 281.128C240.315 301.62 246.616 344.802 249.096 367.094C249.305 369.028 249.484 370.801 249.643 372.386" stroke="black" stroke-width="4.05" stroke-miterlimit="10"/>
<path d="M247.156 309.06C247.156 309.06 248.076 291.26 255.804 285.849C263.533 280.438 263.37 310.76 263.37 310.76" stroke="black" stroke-width="4.05" stroke-miterlimit="10"/>
<path d="M255.591 323.099C255.591 323.099 254.012 312.917 256.783 302.904" stroke="black" stroke-width="4.05" stroke-miterlimit="10"/>
</svg>
