<svg width="626" height="658" viewBox="0 0 626 658" fill="none" xmlns="http://www.w3.org/2000/svg">
<path d="M489.479 431.115H343.552C340.425 431.115 337.891 433.658 337.891 436.794V539.975C337.891 543.111 340.425 545.653 343.552 545.653H489.479C492.606 545.653 495.141 543.111 495.141 539.975V436.794C495.141 433.658 492.606 431.115 489.479 431.115Z" fill="#930BFF"/>
<path d="M482.119 436.478H350.919C347.792 436.478 345.258 439.02 345.258 442.156V534.612C345.258 537.748 347.792 540.29 350.919 540.29H482.119C485.245 540.29 487.78 537.748 487.78 534.612V442.156C487.78 439.02 485.245 436.478 482.119 436.478Z" fill="#930BFF"/>
<path d="M416.514 521.597C434.799 521.597 449.622 506.728 449.622 488.387C449.622 470.046 434.799 455.178 416.514 455.178C398.229 455.178 383.405 470.046 383.405 488.387C383.405 506.728 398.229 521.597 416.514 521.597Z" fill="white"/>
<path d="M351.274 545.41V545.633C351.274 552.446 353.973 558.98 358.775 563.798C363.578 568.615 370.092 571.322 376.885 571.322C383.677 571.322 390.191 568.615 394.994 563.798C399.797 558.98 402.495 552.446 402.495 545.633" stroke="black" stroke-width="4.57" stroke-miterlimit="10"/>
<path d="M506.675 307.661C527.969 303.095 550.896 311.339 566.489 326.579C582.082 341.818 590.761 363.308 592.998 385.029C596.6 419.594 586.943 459.521 567.945 488.552" stroke="black" stroke-width="4.57" stroke-miterlimit="10"/>
<path d="M315.947 168.705C351.621 155.808 394.385 167.244 427.841 256.219C438.77 285.296 452.651 298.989 472.207 300.699" stroke="black" stroke-width="4.57" stroke-miterlimit="10"/>
<path d="M179.612 211.468C179.612 211.468 219.431 206.862 219.674 255.876L331.142 223.319L348.644 217.798C348.644 217.798 323.532 187.24 294.563 181.983C294.875 184.953 295.462 187.887 296.315 190.748C297.81 196.012 292.851 199.104 285.97 201.065C279.088 203.026 265.155 191.425 262.76 181.193C262.76 181.193 266.198 178.081 253.393 180.312C240.587 182.542 201.733 191.596 179.612 211.468Z" fill="#2E2E2E"/>
<path d="M6.73516 449.335C7.82202 449.923 9.03641 450.232 10.271 450.237C11.3836 450.235 12.4817 449.983 13.4842 449.499C14.4868 449.015 15.3682 448.311 16.0635 447.44L41.1885 416.547L61.4654 391.023L44.8686 381.686C43.1486 380.712 41.1137 380.464 39.2106 380.994C37.3076 381.525 35.6925 382.791 34.7201 384.515L3.7766 439.018C3.28512 439.888 2.97162 440.847 2.85446 441.84C2.73736 442.833 2.81897 443.839 3.09449 444.8C3.37001 445.761 3.83393 446.657 4.4591 447.435C5.0842 448.214 5.85802 448.86 6.73516 449.335Z" fill="#2E2E2E"/>
<path d="M389.184 595.089L410.097 615.723C411.906 617.515 414.345 618.519 416.887 618.52H469.216C471.367 618.533 473.44 617.714 475.004 616.233C476.568 614.752 477.503 612.723 477.613 610.569C477.724 608.414 477.002 606.3 475.598 604.665C474.194 603.031 472.216 602.002 470.075 601.794L441.041 598.78L389.184 595.089Z" fill="#2E2E2E"/>
<path d="M292.831 179.634V181.055V181.417C304.402 184.328 315.297 189.467 324.91 196.551C326.464 197.696 327.986 198.854 329.502 200.078C329.541 195.169 329.121 190.241 327.534 185.602C326.251 181.616 323.842 178.088 320.6 175.449C317.746 173.166 314.368 171.699 310.97 170.376C307.572 169.053 304.239 167.895 301.13 166.112C298.506 164.669 296.213 162.689 294.399 160.302C293.765 159.438 293.37 158.421 293.254 157.354C293.139 156.288 293.308 155.209 293.743 154.229C293.437 154.208 293.135 154.148 292.844 154.051L292.831 179.634Z" fill="#930BFF"/>
<path d="M292.831 179.634V181.055V181.417C304.402 184.328 315.297 189.467 324.91 196.551C326.464 197.696 327.986 198.854 329.502 200.078C329.541 195.169 329.121 190.241 327.534 185.602C326.251 181.616 323.842 178.088 320.6 175.449C317.746 173.166 314.368 171.699 310.97 170.376C307.572 169.053 304.239 167.895 301.13 166.112C298.506 164.669 296.213 162.689 294.399 160.302C293.765 159.438 293.37 158.421 293.254 157.354C293.139 156.288 293.308 155.209 293.743 154.229C293.437 154.208 293.135 154.148 292.844 154.051L292.831 179.634Z" fill="#930BFF"/>
<path d="M132.997 290.507C137.341 293.633 142.174 296.011 147.298 297.541C149.495 298.199 144.3 300.66 146.556 301.101C137.628 279.966 143.998 247.474 172.245 217.824C177.054 212.771 188.114 206.369 193.565 201.92C202.336 194.768 211.933 193.84 221.117 189.55C225.222 187.649 229.437 185.997 233.739 184.602C241.387 182.053 249.28 180.315 257.289 179.417C259.106 179.193 260.904 179.035 262.721 178.937C262.277 175.804 262.366 172.618 262.983 169.514C264.656 160.999 267.575 156.111 272.889 149.399C276.221 145.175 281.417 135.074 274.483 131.593C270.114 129.409 269.714 124.941 271.767 122.217C273.506 119.888 277.015 118.828 281.358 121.559C284.356 123.48 287.918 123.605 291.342 122.664C294.012 121.105 296.327 119.003 298.138 116.492C303.17 109.254 303.347 98.2986 295.482 92.9886C291.185 90.0868 285.714 89.3827 280.577 89.942C278.283 90.2085 276.022 90.7178 273.834 91.462C273.824 91.4581 273.815 91.4561 273.804 91.4561C273.794 91.4561 273.784 91.4581 273.775 91.462C264.486 96.4891 257.834 105.787 254.639 116.262C252.763 122.454 250.644 128.586 248.164 134.594C246.131 139.522 244.714 145.517 240.174 148.879C238.282 150.289 236.131 151.311 233.844 151.886C225.276 157.334 213.39 154.189 204.022 153.031C196.531 152.004 188.905 152.778 181.771 155.288C173.78 159.335 166.912 165.816 161.336 174.219C152.152 188.142 161.874 208.218 146.478 219.2C141.84 222.49 136.467 224.51 131.39 227.096C124.121 230.807 118.27 236.071 116.111 244.204C111.802 260.496 119.431 280.63 132.997 290.507Z" fill="#930BFF"/>
<path d="M322.927 409.684L441.368 598.589L390.856 596.194L372.016 578.955H350.479C350.479 578.955 291.781 492.612 278.319 477.978C264.858 463.344 278.319 426.253 278.319 426.253L322.927 409.684Z" fill="white"/>
<path d="M509.535 618.513H145.186" stroke="black" stroke-width="4.57" stroke-miterlimit="10"/>
<path d="M306.192 109.886C307.128 111.831 307.928 113.838 308.586 115.893C309.544 119.243 308.508 121.309 309.964 124.493C310.463 125.592 311.184 127.454 311.932 129.343C312.149 128.902 312.352 128.54 312.47 128.257C318.184 115.499 310.673 109.346 307.058 107.241C306.835 108.143 306.546 109.027 306.192 109.886Z" fill="#930BFF"/>
<path d="M306.192 109.886C307.128 111.831 307.928 113.838 308.586 115.893C309.544 119.243 308.508 121.309 309.964 124.493C310.463 125.592 311.184 127.454 311.932 129.343C312.149 128.902 312.352 128.54 312.47 128.257C318.184 115.499 310.673 109.346 307.058 107.241C306.835 108.143 306.546 109.027 306.192 109.886Z" fill="#930BFF"/>
<path d="M252.179 451.677C246.072 473.214 236.219 495.053 228.051 508.858C222.147 518.818 212.704 526.17 201.618 529.436C190.534 532.702 178.627 531.641 168.29 526.466L78.6474 481.847V461.653L41.1898 416.573L16.0652 447.44C15.3673 448.306 14.4847 449.005 13.4824 449.484C12.4799 449.964 11.3832 450.212 10.2727 450.21C8.96955 450.203 7.69081 449.855 6.56282 449.2C5.43483 448.545 4.49661 447.607 3.84081 446.477C3.18501 445.348 2.83431 444.066 2.82335 442.759C2.8124 441.452 3.14151 440.164 3.77829 439.024L34.7218 384.548C35.6945 382.824 37.3095 381.558 39.2119 381.027C41.115 380.496 43.1499 380.746 44.8699 381.719L61.4667 391.056L156.587 444.492C158.169 445.38 159.938 445.878 161.75 445.947C163.561 446.015 165.363 445.65 167.007 444.883C168.651 444.116 170.089 442.968 171.204 441.534C172.319 440.101 173.079 438.421 173.42 436.636L184.69 377.416" stroke="black" stroke-width="4.57" stroke-miterlimit="10"/>
<path d="M210.924 417.416L235.294 437.3C260.943 457.598 283.266 481.798 301.452 509.022L350.14 579.145H428.729" stroke="black" stroke-width="4.57" stroke-miterlimit="10"/>
<path d="M373.067 579.158L389.184 595.088L410.098 615.723C411.907 617.514 414.346 618.519 416.887 618.52H469.216C471.368 618.533 473.44 617.714 475.004 616.233C476.568 614.752 477.503 612.724 477.614 610.569C477.725 608.414 477.003 606.299 475.599 604.666C474.195 603.031 472.217 602.003 470.076 601.794L441.041 598.78L300.88 375.224C293.664 363.683 287.236 344.687 292.831 332.244C314.145 284.914 312.301 239.064 312.301 239.064" stroke="black" stroke-width="4.57" stroke-miterlimit="10"/>
<path d="M292.83 150.024V179.437V180.858V181.22C295.841 185.628 297.363 191.879 294.483 196.564C290.632 202.835 282.124 201.795 276.725 198.288C275.14 197.256 273.625 196.117 272.192 194.88C267.395 190.697 264.291 184.897 263.467 178.575C263.025 175.444 263.111 172.26 263.723 169.159C265.409 160.651 268.315 155.762 273.648 149.037C276.981 144.819 282.176 134.712 275.229 131.231C267.102 127.165 272.73 115.262 282.104 121.21C289.373 125.816 299.816 120.072 304.133 113.88C309.164 106.642 309.348 95.6863 301.476 90.3763C297.179 87.4745 291.708 86.7704 286.578 87.3297C270.933 89.0537 259.807 101.319 255.353 115.9C253.476 122.092 251.358 128.224 248.884 134.232C246.844 139.167 245.427 145.155 240.894 148.517C232.268 154.992 219.765 151.603 209.997 150.406C189.661 147.899 173.261 156.933 162.056 173.844C152.872 187.767 162.594 207.842 147.191 218.824C142.56 222.114 137.187 224.134 132.103 226.72C124.828 230.425 118.983 235.696 116.819 243.828C112.509 260.173 120.138 280.315 133.697 290.191C139.91 294.718 147.178 297.429 154.729 298.903" stroke="black" stroke-width="4.57" stroke-miterlimit="10"/>
<path d="M332.973 203.861C333.012 203.486 333.032 203.125 333.045 202.769C333.386 196.314 333.347 189.609 331.247 183.431C329.962 179.448 327.554 175.923 324.314 173.284C321.447 171.001 318.075 169.52 314.69 168.204C311.305 166.888 307.953 165.73 304.85 163.941C302.221 162.507 299.929 160.526 298.126 158.13C297.488 157.271 297.089 156.258 296.968 155.194C296.847 154.129 297.009 153.052 297.437 152.07" stroke="black" stroke-width="4.57" stroke-miterlimit="10"/>
<path d="M78.6526 461.659V400.702" stroke="black" stroke-width="4.57" stroke-miterlimit="10"/>
<path d="M286.528 143.444C288.883 146.82 292.078 150.465 296.106 151.787C301.321 153.485 304.83 149.05 306.7 144.727C307.822 142.154 308.589 139.417 309.495 136.759C309.79 135.884 309.967 135.443 310.971 135.39C311.974 135.337 313.017 135.548 314.041 135.548C314.118 135.552 314.195 135.534 314.263 135.495C314.331 135.456 314.386 135.398 314.421 135.329C314.457 135.26 314.473 135.181 314.466 135.104C314.458 135.026 314.43 134.952 314.382 134.89C313.004 132.791 310.951 127.053 309.908 124.757C308.465 121.572 309.508 119.493 308.537 116.163C307.874 114.109 307.078 112.1 306.156 110.149" stroke="black" stroke-width="4.57" stroke-miterlimit="10"/>
<path d="M307.689 104.003C307.689 104.003 321.905 109.465 314.564 125.902C314.112 126.902 312.996 128.975 312.472 129.915" stroke="black" stroke-width="4.57" stroke-miterlimit="10"/>
<path d="M306.9 144.227C305.764 144.382 304.608 144.116 303.653 143.479C302.696 142.842 302.004 141.877 301.705 140.766" stroke="black" stroke-width="4.57" stroke-miterlimit="10"/>
<path d="M309.308 122.21C306.363 119.809 303.135 122.868 301.167 125.112" stroke="black" stroke-width="4.57" stroke-miterlimit="10"/>
<path d="M292.831 181.22C304.407 184.131 315.309 189.271 324.929 196.354C327.724 198.38 330.42 200.539 333.038 202.782C343.363 211.573 352.449 221.746 361.278 232.031" stroke="black" stroke-width="4.57" stroke-miterlimit="10"/>
<path d="M374.522 329.053C374.469 329.02 374.421 328.98 374.378 328.934C362.793 317.314 351.123 305.779 339.505 294.198C329.77 284.499 317.109 274.57 311.166 261.844" stroke="black" stroke-width="4.57" stroke-miterlimit="10"/>
<path d="M238.683 412.717C239.628 412.415 240.526 412.112 241.379 411.796C241.394 411.801 241.41 411.801 241.425 411.796" stroke="black" stroke-width="4.57" stroke-miterlimit="10"/>
<path d="M150.5 276.077L219.675 255.876L346.709 218.772C352.812 217.009 359.362 217.742 364.928 220.81C370.495 223.877 374.623 229.03 376.413 235.143L403.696 329.151C405.454 335.272 404.727 341.842 401.672 347.426C398.618 353.011 393.485 357.156 387.394 358.959L252.009 398.491L239.086 402.255L225.966 406.104L213.043 409.888L202.547 412.934L165.286 423.818C159.182 425.583 152.63 424.852 147.064 421.784C141.497 418.716 137.369 413.561 135.582 407.447L108.299 313.438C106.539 307.321 107.265 300.753 110.319 295.172C113.373 289.59 118.505 285.448 124.594 283.651L125.572 283.368L126.392 283.124L143.789 278.038L150.5 276.077Z" fill="white"/>
<path d="M160.897 278.531L224.988 259.818L342.701 225.437C348.359 223.794 354.436 224.467 359.601 227.31C364.766 230.153 368.596 234.934 370.253 240.604L395.522 327.684C397.149 333.355 396.477 339.442 393.651 344.618C390.825 349.794 386.074 353.641 380.434 355.32L254.974 391.958L243.002 395.458L230.82 399.018L218.848 402.532L209.113 405.328L169.274 417.172C163.615 418.818 157.537 418.145 152.371 415.302C147.207 412.459 143.377 407.677 141.722 402.005L116.466 314.879C114.827 309.208 115.495 303.116 118.322 297.937C121.15 292.758 125.907 288.913 131.554 287.243L132.459 286.98L133.22 286.763L154.678 280.315L160.897 278.531Z" fill="#930BFF"/>
<path d="M167.838 281.624L227.265 264.273L340.753 230.945C345.996 229.431 351.623 230.061 356.404 232.695C361.186 235.33 364.733 239.756 366.271 245.006L389.717 325.776C391.227 331.035 390.602 336.679 387.978 341.477C385.354 346.275 380.944 349.837 375.711 351.385L255.046 386.819L243.947 390.056L232.657 393.346L221.551 396.596L212.557 399.228L172.01 411.204C166.763 412.732 161.128 412.109 156.338 409.473C151.549 406.836 147.998 402.402 146.465 397.143L123.013 316.38C121.501 311.123 122.126 305.479 124.75 300.683C127.375 295.887 131.786 292.328 137.019 290.783L141.467 289.513L142.175 289.303L162.072 283.328L167.838 281.624Z" fill="#222222"/>
<path d="M256.167 329.691L149.364 359.926C148.794 360.087 148.199 360.135 147.611 360.065C147.023 359.995 146.455 359.81 145.939 359.519C145.423 359.229 144.969 358.84 144.603 358.373C144.238 357.907 143.967 357.372 143.807 356.801C143.69 356.406 143.63 355.996 143.63 355.583C143.634 354.6 143.956 353.645 144.548 352.86C145.139 352.077 145.968 351.506 146.91 351.234L253.714 321.019C253.283 322.494 253.263 324.059 253.655 325.546C254.078 327.141 254.951 328.579 256.167 329.691Z" fill="#930BFF"/>
<path d="M281.115 319.189C281.114 320.176 280.794 321.135 280.202 321.923C279.61 322.71 278.78 323.285 277.835 323.558L270.127 325.743C270.566 324.209 270.571 322.583 270.141 321.047C269.711 319.511 268.864 318.125 267.693 317.044L275.401 314.866C276.55 314.546 277.779 314.694 278.819 315.28C279.859 315.866 280.625 316.841 280.951 317.992C281.067 318.38 281.122 318.784 281.115 319.189Z" fill="white"/>
<path d="M285.969 336.442C285.966 337.426 285.644 338.381 285.052 339.165C284.461 339.95 283.632 340.52 282.689 340.791L176.548 370.823C177.184 369.347 177.391 367.721 177.144 366.132C176.896 364.544 176.206 363.058 175.151 361.847L280.235 332.093C281.385 331.774 282.613 331.924 283.652 332.509C284.692 333.095 285.458 334.069 285.785 335.218C285.907 335.614 285.969 336.027 285.969 336.442Z" fill="white"/>
<path d="M163.782 374.402L154.217 377.106C153.634 377.337 153.01 377.443 152.383 377.416C151.757 377.391 151.143 377.233 150.581 376.955C150.019 376.677 149.521 376.284 149.119 375.801C148.718 375.319 148.421 374.757 148.249 374.153C148.076 373.548 148.032 372.914 148.118 372.292C148.205 371.669 148.42 371.071 148.751 370.537C149.081 370.003 149.52 369.544 150.037 369.189C150.555 368.835 151.141 368.594 151.757 368.48L160.285 366.072C160.102 367.253 160.157 368.459 160.449 369.618C160.96 371.558 162.141 373.253 163.782 374.402Z" fill="#930BFF"/>
<path d="M258.864 366.355L159.768 394.405C158.62 394.718 157.394 394.566 156.356 393.981C155.318 393.397 154.55 392.427 154.219 391.28C154.103 390.889 154.048 390.483 154.055 390.076C154.057 389.09 154.378 388.131 154.969 387.344C155.561 386.555 156.391 385.981 157.335 385.706L256.286 357.722C255.872 359.259 255.894 360.881 256.349 362.407C256.805 363.932 257.676 365.299 258.864 366.355Z" fill="#930BFF"/>
<path d="M291.538 353.688C291.54 354.673 291.22 355.631 290.627 356.416C290.035 357.201 289.203 357.77 288.258 358.038L272.718 362.426L258.876 366.374C257.688 365.318 256.817 363.951 256.362 362.426C255.906 360.901 255.884 359.279 256.298 357.742L270.402 353.754L285.818 349.385C286.965 349.06 288.194 349.205 289.236 349.787C290.277 350.369 291.046 351.341 291.374 352.491C291.484 352.88 291.54 353.284 291.538 353.688Z" fill="white"/>
<path d="M270.126 325.743C269.611 327.548 268.518 329.134 267.015 330.255C265.512 331.375 263.684 331.969 261.811 331.944C259.939 331.918 258.127 331.275 256.655 330.114C255.183 328.953 254.133 327.338 253.667 325.519C253.385 324.431 253.319 323.298 253.473 322.184C253.628 321.071 254 319.999 254.568 319.03C255.136 318.061 255.888 317.213 256.783 316.536C257.677 315.858 258.696 315.365 259.781 315.083C261.159 314.723 262.606 314.715 263.987 315.06C265.369 315.405 266.643 316.091 267.692 317.057C268.862 318.138 269.71 319.523 270.14 321.06C270.569 322.596 270.565 324.222 270.126 325.756V325.743Z" fill="white"/>
<path d="M176.549 370.822C175.849 372.464 174.654 373.845 173.133 374.772C171.611 375.698 169.839 376.124 168.064 375.989C166.288 375.854 164.6 375.165 163.235 374.02C161.87 372.873 160.896 371.328 160.451 369.599C160.159 368.44 160.104 367.234 160.287 366.052C160.563 364.423 161.301 362.909 162.413 361.69C163.525 360.472 164.965 359.601 166.558 359.182C168.097 358.773 169.721 358.808 171.241 359.283C172.761 359.758 174.116 360.654 175.152 361.867C176.206 363.078 176.897 364.564 177.145 366.152C177.392 367.74 177.185 369.367 176.549 370.842V370.822Z" fill="white"/>
<path d="M272.706 362.426C272.109 364.396 270.821 366.082 269.081 367.173C267.341 368.264 265.266 368.687 263.239 368.362C261.212 368.038 259.371 366.988 258.056 365.408C256.741 363.828 256.041 361.823 256.085 359.765C256.129 357.707 256.914 355.734 258.295 354.212C259.677 352.69 261.561 351.721 263.6 351.483C265.638 351.246 267.694 351.758 269.385 352.922C271.077 354.087 272.292 355.827 272.805 357.82C273.192 359.336 273.158 360.929 272.706 362.426Z" fill="white"/>
<path d="M255.105 385.45C249.417 385.766 243.297 377.554 241.427 375.507C241.22 375.29 240.984 375.101 240.725 374.948L235.641 370.822L236.494 377.31C237.852 380.436 245.022 387.253 250.132 395.076C255.243 402.9 250.375 404.611 247.64 405.604C244.904 406.598 242.044 401.413 243.159 407.045C244.274 412.678 237.649 412.757 233.516 412.053C229.383 411.349 227.901 406.789 228.839 410.368C229.777 413.948 226.68 416.56 223.886 416.678C221.767 416.784 217.693 413.915 215.856 412.533C215.437 414.797 213.921 419.047 208.64 416.784C201.628 413.777 194.819 395.807 189.616 377.416C184.414 359.025 150.722 325.48 145.809 289.961C145.809 289.902 145.809 289.816 145.809 289.757C145.546 287.072 145.413 284.368 145.409 281.644C145.41 276.466 145.91 271.301 146.904 266.22C147.614 262.524 148.563 258.877 149.745 255.304L205.374 266.385C204.993 266.806 204.613 267.227 204.232 267.668C191.211 282.835 198.82 302.068 208.726 316.189C218.776 330.559 230.341 344.759 243.559 356.327C247.44 359.715 251.067 363.386 254.41 367.309L253.688 367.71C254.473 369.244 255.349 370.73 256.312 372.158C260.241 377.593 260.819 385.127 255.105 385.45Z" fill="white"/>
<path d="M219.675 255.876L346.709 218.772C352.812 217.009 359.362 217.742 364.929 220.81C370.495 223.877 374.624 229.03 376.413 235.143L403.696 329.151C405.454 335.272 404.727 341.842 401.672 347.426C398.618 353.011 393.486 357.156 387.395 358.959L252.009 398.491" stroke="black" stroke-width="4.57" stroke-miterlimit="10"/>
<path d="M202.514 412.934L165.286 423.818C159.182 425.584 152.63 424.853 147.064 421.785C141.497 418.716 137.369 413.561 135.582 407.447L108.299 313.438C106.539 307.321 107.265 300.753 110.319 295.172C113.373 289.59 118.505 285.448 124.594 283.651L125.572 283.368L126.392 283.124L143.789 278.038" stroke="black" stroke-width="4.57" stroke-miterlimit="10"/>
<path d="M239.085 402.255H239.065" stroke="black" stroke-width="4.57" stroke-miterlimit="10"/>
<path d="M213.001 409.888H212.981" stroke="black" stroke-width="4.57" stroke-miterlimit="10"/>
<path d="M220.079 373.849C221.91 383.864 230.228 394.714 239.051 402.229C241.616 404.413 247.284 407.072 250.36 404.578C256.999 399.209 245.65 390.365 242.521 386.812C238.723 382.495 235.653 377.435 234.511 371.731C234.412 371.378 234.433 371.003 234.571 370.665C234.704 370.48 234.893 370.344 235.109 370.277C235.326 370.209 235.558 370.214 235.771 370.289C236.195 370.446 236.576 370.698 236.886 371.026C240.481 374.316 243.689 377.955 246.943 381.554C249.245 384.127 255.235 387.319 258.173 384.042C264.55 376.929 246.503 360.354 241.885 356.287C228.68 344.706 217.095 330.507 207.045 316.149C197.139 302.029 189.53 282.795 202.551 267.628C209.347 259.732 219.41 256.284 228.398 251.619C242.895 244.118 245.88 231.616 245.88 231.616" stroke="black" stroke-width="4.57" stroke-miterlimit="10"/>
<path d="M211.657 384.029C211.657 384.029 219.161 405.486 235.102 412.165C236.049 412.587 237.078 412.79 238.114 412.759C239.149 412.729 240.164 412.465 241.085 411.987C243.053 410.882 244.66 408.697 241.898 404.315" stroke="black" stroke-width="4.57" stroke-miterlimit="10"/>
<path d="M201.266 389.042C204.191 397.004 208.075 405.328 214.32 411.25C217.167 413.941 220.775 416.606 224.816 416.777C229.684 416.981 230.064 412.059 228.096 408.71C227.671 407.992 227.159 407.33 226.574 406.736" stroke="black" stroke-width="4.57" stroke-miterlimit="10"/>
<path d="M214.319 411.25C214.319 411.25 213.965 419.804 206.953 416.784C199.94 413.764 193.111 395.8 187.929 377.402C182.746 359.005 148.864 325.361 144.055 289.757L144.108 290.191C144.108 290.112 144.108 290.053 144.108 289.974C143.288 282.044 143.651 274.036 145.184 266.214C160.37 189.122 262.758 178.923 262.758 178.923" stroke="black" stroke-width="4.57" stroke-miterlimit="10"/>
<path d="M414.46 341.732C411.626 350.122 404.62 355.471 395.987 356.774C392.287 357.32 388.298 357.82 384.835 356.116C382.296 354.872 379.797 351.971 380.558 348.924C379.429 348.939 378.302 348.81 377.205 348.543C375.703 348.181 374.148 347.463 373.486 346.075C372.823 344.687 373.289 342.752 374.365 341.508C375.537 340.349 376.981 339.503 378.563 339.048C378.948 338.905 379.34 338.784 379.738 338.686C378.456 338.697 377.177 338.615 375.907 338.442C373.466 338.126 370.731 337.08 370.003 334.738C369.801 333.941 369.803 333.107 370.009 332.312C370.216 331.517 370.62 330.787 371.183 330.191C372.331 329.008 373.771 328.15 375.356 327.704C375.52 327.664 375.657 327.605 375.815 327.565C372.922 327.526 369.963 326.947 368.684 324.197C368.273 323.219 368.157 322.142 368.349 321.099C368.541 320.056 369.034 319.092 369.766 318.327C372.325 315.445 376.156 315.037 379.77 314.761C383.385 314.484 387.78 314.359 392.038 314.28C392.963 314.256 393.869 314.019 394.689 313.59C395.509 313.159 396.22 312.547 396.767 311.798C397.314 311.051 397.684 310.187 397.848 309.274C398.012 308.36 397.965 307.422 397.712 306.529C396.052 300.607 395.35 294.146 398.847 292.566C404.062 290.198 407.657 296.653 409.153 300.62C413.725 312.78 418.816 328.888 414.46 341.732Z" fill="white"/>
<path d="M392.464 336.843C388.246 337.745 383.975 338.666 379.698 338.705C379.301 338.805 378.909 338.926 378.524 339.067C376.942 339.523 375.498 340.368 374.325 341.528C373.25 342.772 372.731 344.614 373.446 346.095C374.161 347.575 375.664 348.2 377.166 348.562C378.263 348.829 379.39 348.958 380.518 348.944C382.827 348.897 385.125 348.608 387.373 348.082C387.754 348.003 392.411 347.463 392.772 347.378" stroke="black" stroke-width="4.57" stroke-miterlimit="10"/>
<path d="M375.769 327.585C375.611 327.625 375.474 327.684 375.31 327.724C373.725 328.169 372.285 329.027 371.137 330.211C370.573 330.807 370.169 331.536 369.963 332.332C369.757 333.126 369.754 333.961 369.957 334.758C370.718 337.1 373.453 338.146 375.861 338.462C377.13 338.635 378.411 338.716 379.692 338.706" stroke="black" stroke-width="4.57" stroke-miterlimit="10"/>
<path d="M396.006 327.145C395.685 327.145 395.383 327.145 395.068 327.145L379.823 327.487C378.629 327.487 377.199 327.605 375.769 327.566C372.876 327.526 369.917 326.947 368.638 324.197C368.227 323.22 368.111 322.142 368.303 321.099C368.495 320.057 368.988 319.093 369.721 318.327C372.279 315.445 376.11 315.037 379.725 314.761C383.339 314.485 387.741 314.373 391.998 314.281C392.926 314.26 393.837 314.025 394.66 313.596C395.484 313.166 396.198 312.552 396.748 311.803C397.298 311.053 397.669 310.186 397.833 309.269C397.997 308.353 397.948 307.411 397.692 306.516C396.033 300.594 395.318 294.126 398.821 292.547C404.036 290.178 407.631 296.633 409.126 300.601C413.718 312.761 418.816 328.895 414.46 341.713C411.619 350.102 404.62 355.465 395.993 356.754C392.3 357.307 388.298 357.807 384.841 356.096C382.316 354.859 379.81 351.964 380.564 348.918" stroke="black" stroke-width="4.57" stroke-miterlimit="10"/>
<g opacity="0.54">
<path opacity="0.54" d="M275.191 292.672C275.076 291.912 274.903 291.162 274.673 290.428L272.095 282.065C271.307 279.505 270.435 276.801 268.428 275.037C264.708 271.747 258.975 272.978 254.219 274.412L242.548 277.926C239.865 278.735 237.143 279.564 234.801 281.098C232.459 282.631 230.504 285.013 230.137 287.796C229.861 289.849 230.465 291.902 231.062 293.889L233.463 301.917C234.256 304.549 235.136 307.325 237.202 309.155C240.882 312.366 246.504 311.162 251.188 309.773L263.127 306.24C270.33 304.082 276.352 300.219 275.191 292.672Z" fill="white"/>
<path opacity="0.54" d="M258.816 293.652C259.298 293.144 259.636 292.516 259.795 291.834C259.955 291.151 259.93 290.437 259.724 289.767C259.517 289.097 259.137 288.494 258.621 288.021C258.105 287.547 257.473 287.22 256.789 287.072L253.089 286.23L249.396 285.388C248.716 285.223 248.005 285.244 247.336 285.446C246.667 285.648 246.063 286.026 245.588 286.54C245.112 287.054 244.781 287.686 244.63 288.37C244.478 289.055 244.511 289.768 244.725 290.435L245.847 294.067L246.962 297.699C247.159 298.373 247.532 298.981 248.042 299.462C248.552 299.943 249.181 300.28 249.863 300.436C250.545 300.592 251.257 300.563 251.925 300.351C252.592 300.14 253.191 299.753 253.66 299.232L256.238 296.442L258.816 293.652Z" fill="#930BFF"/>
</g>
<path d="M485.399 369.618C505.068 369.618 521.013 353.625 521.013 333.895C521.013 314.167 505.068 298.173 485.399 298.173C465.729 298.173 449.785 314.167 449.785 333.895C449.785 353.625 465.729 369.618 485.399 369.618Z" fill="#930BFF"/>
<path d="M479.633 349.911C479.219 349.911 478.809 349.829 478.425 349.67C478.043 349.511 477.695 349.277 477.403 348.983L468.219 339.771C467.627 339.178 467.294 338.374 467.294 337.536C467.293 336.698 467.625 335.893 468.215 335.3C468.807 334.707 469.608 334.373 470.444 334.372C471.28 334.372 472.081 334.704 472.673 335.297L479.653 342.298L498.145 323.736C498.737 323.142 499.538 322.809 500.374 322.808C501.21 322.807 502.011 323.14 502.603 323.733C503.195 324.325 503.527 325.129 503.528 325.967C503.529 326.805 503.197 327.61 502.606 328.204L481.857 349.016C481.263 349.597 480.463 349.919 479.633 349.911Z" fill="white"/>
</svg>
