<svg width="145" height="35" viewBox="0 0 145 35" fill="none" xmlns="http://www.w3.org/2000/svg">
<path d="M0 34H52" stroke="#6D06BF" stroke-width="2"/>
<g filter="url(#filter0_d)">
<path d="M7.152 19.168C6.048 19.168 5.056 18.976 4.176 18.592C3.312 18.192 2.632 17.648 2.136 16.96C1.64 16.256 1.384 15.448 1.368 14.536H3.696C3.776 15.32 4.096 15.984 4.656 16.528C5.232 17.056 6.064 17.32 7.152 17.32C8.192 17.32 9.008 17.064 9.6 16.552C10.208 16.024 10.512 15.352 10.512 14.536C10.512 13.896 10.336 13.376 9.984 12.976C9.632 12.576 9.192 12.272 8.664 12.064C8.136 11.856 7.424 11.632 6.528 11.392C5.424 11.104 4.536 10.816 3.864 10.528C3.208 10.24 2.64 9.792 2.16 9.184C1.696 8.56 1.464 7.728 1.464 6.688C1.464 5.776 1.696 4.968 2.16 4.264C2.624 3.56 3.272 3.016 4.104 2.632C4.952 2.248 5.92 2.056 7.008 2.056C8.576 2.056 9.856 2.448 10.848 3.232C11.856 4.016 12.424 5.056 12.552 6.352H10.152C10.072 5.712 9.736 5.152 9.144 4.672C8.552 4.176 7.768 3.928 6.792 3.928C5.88 3.928 5.136 4.168 4.56 4.648C3.984 5.112 3.696 5.768 3.696 6.616C3.696 7.224 3.864 7.72 4.2 8.104C4.552 8.488 4.976 8.784 5.472 8.992C5.984 9.184 6.696 9.408 7.608 9.664C8.712 9.968 9.6 10.272 10.272 10.576C10.944 10.864 11.52 11.32 12 11.944C12.48 12.552 12.72 13.384 12.72 14.44C12.72 15.256 12.504 16.024 12.072 16.744C11.64 17.464 11 18.048 10.152 18.496C9.304 18.944 8.304 19.168 7.152 19.168ZM27.9339 11.92C27.9339 12.336 27.9099 12.776 27.8619 13.24H17.3499C17.4299 14.536 17.8699 15.552 18.6699 16.288C19.4859 17.008 20.4699 17.368 21.6219 17.368C22.5659 17.368 23.3499 17.152 23.9739 16.72C24.6139 16.272 25.0619 15.68 25.3179 14.944H27.6699C27.3179 16.208 26.6139 17.24 25.5579 18.04C24.5019 18.824 23.1899 19.216 21.6219 19.216C20.3739 19.216 19.2539 18.936 18.2619 18.376C17.2859 17.816 16.5179 17.024 15.9579 16C15.3979 14.96 15.1179 13.76 15.1179 12.4C15.1179 11.04 15.3899 9.848 15.9339 8.824C16.4779 7.8 17.2379 7.016 18.2139 6.472C19.2059 5.912 20.3419 5.632 21.6219 5.632C22.8699 5.632 23.9739 5.904 24.9339 6.448C25.8939 6.992 26.6299 7.744 27.1419 8.704C27.6699 9.648 27.9339 10.72 27.9339 11.92ZM25.6779 11.464C25.6779 10.632 25.4939 9.92 25.1259 9.328C24.7579 8.72 24.2539 8.264 23.6139 7.96C22.9899 7.64 22.2939 7.48 21.5259 7.48C20.4219 7.48 19.4779 7.832 18.6939 8.536C17.9259 9.24 17.4859 10.216 17.3739 11.464H25.6779ZM35.7128 16.984L39.7928 5.848H42.1208L36.9608 19H34.4168L29.2568 5.848H31.6088L35.7128 16.984ZM56.2699 11.92C56.2699 12.336 56.2459 12.776 56.1979 13.24H45.6859C45.7659 14.536 46.2059 15.552 47.0059 16.288C47.8219 17.008 48.8059 17.368 49.9579 17.368C50.9019 17.368 51.6859 17.152 52.3099 16.72C52.9499 16.272 53.3979 15.68 53.6539 14.944H56.0059C55.6539 16.208 54.9499 17.24 53.8939 18.04C52.8379 18.824 51.5259 19.216 49.9579 19.216C48.7099 19.216 47.5899 18.936 46.5979 18.376C45.6219 17.816 44.8539 17.024 44.2939 16C43.7339 14.96 43.4539 13.76 43.4539 12.4C43.4539 11.04 43.7259 9.848 44.2699 8.824C44.8139 7.8 45.5739 7.016 46.5499 6.472C47.5419 5.912 48.6779 5.632 49.9579 5.632C51.2059 5.632 52.3099 5.904 53.2699 6.448C54.2299 6.992 54.9659 7.744 55.4779 8.704C56.0059 9.648 56.2699 10.72 56.2699 11.92ZM54.0139 11.464C54.0139 10.632 53.8299 9.92 53.4619 9.328C53.0939 8.72 52.5899 8.264 51.9499 7.96C51.3259 7.64 50.6299 7.48 49.8619 7.48C48.7579 7.48 47.8139 7.832 47.0299 8.536C46.2619 9.24 45.8219 10.216 45.7099 11.464H54.0139ZM65.5607 5.608C67.1607 5.608 68.4567 6.096 69.4487 7.072C70.4407 8.032 70.9367 9.424 70.9367 11.248V19H68.7767V11.56C68.7767 10.248 68.4487 9.248 67.7927 8.56C67.1367 7.856 66.2407 7.504 65.1047 7.504C63.9527 7.504 63.0327 7.864 62.3447 8.584C61.6727 9.304 61.3367 10.352 61.3367 11.728V19H59.1527V5.848H61.3367V7.72C61.7687 7.048 62.3527 6.528 63.0887 6.16C63.8407 5.792 64.6647 5.608 65.5607 5.608ZM79.7122 2.272C81.5363 2.272 83.1123 2.616 84.4403 3.304C85.7843 3.976 86.8083 4.944 87.5123 6.208C88.2323 7.472 88.5923 8.96 88.5923 10.672C88.5923 12.384 88.2323 13.872 87.5123 15.136C86.8083 16.384 85.7843 17.344 84.4403 18.016C83.1123 18.672 81.5363 19 79.7122 19H74.5043V2.272H79.7122ZM79.7122 17.2C81.8723 17.2 83.5203 16.632 84.6562 15.496C85.7923 14.344 86.3603 12.736 86.3603 10.672C86.3603 8.592 85.7843 6.968 84.6323 5.8C83.4963 4.632 81.8563 4.048 79.7122 4.048H76.6883V17.2H79.7122ZM103.473 11.92C103.473 12.336 103.449 12.776 103.401 13.24H92.889C92.969 14.536 93.409 15.552 94.209 16.288C95.025 17.008 96.009 17.368 97.161 17.368C98.105 17.368 98.889 17.152 99.513 16.72C100.153 16.272 100.601 15.68 100.857 14.944H103.209C102.857 16.208 102.153 17.24 101.097 18.04C100.041 18.824 98.729 19.216 97.161 19.216C95.913 19.216 94.793 18.936 93.801 18.376C92.825 17.816 92.057 17.024 91.497 16C90.937 14.96 90.657 13.76 90.657 12.4C90.657 11.04 90.929 9.848 91.473 8.824C92.017 7.8 92.777 7.016 93.753 6.472C94.745 5.912 95.881 5.632 97.161 5.632C98.409 5.632 99.513 5.904 100.473 6.448C101.433 6.992 102.169 7.744 102.681 8.704C103.209 9.648 103.473 10.72 103.473 11.92ZM101.217 11.464C101.217 10.632 101.033 9.92 100.665 9.328C100.297 8.72 99.793 8.264 99.153 7.96C98.529 7.64 97.833 7.48 97.065 7.48C95.961 7.48 95.017 7.832 94.233 8.536C93.465 9.24 93.025 10.216 92.913 11.464H101.217ZM111.252 16.984L115.332 5.848H117.66L112.5 19H109.956L104.796 5.848H107.148L111.252 16.984ZM120.571 17.65H125.413V19H118.699V17.65L123.487 10.468H118.735V9.136H125.377V10.468L120.571 17.65Z" fill="black"/>
</g>
<defs>
<filter id="filter0_d" x="1.36798" y="2.05591" width="136.045" height="29.16" filterUnits="userSpaceOnUse" color-interpolation-filters="sRGB">
<feFlood flood-opacity="0" result="BackgroundImageFix"/>
<feColorMatrix in="SourceAlpha" type="matrix" values="0 0 0 0 0 0 0 0 0 0 0 0 0 0 0 0 0 0 127 0" result="hardAlpha"/>
<feOffset dx="10" dy="10"/>
<feGaussianBlur stdDeviation="1"/>
<feColorMatrix type="matrix" values="0 0 0 0 0.38 0 0 0 0 0 0 0 0 0 1 0 0 0 1 0"/>
<feBlend mode="normal" in2="BackgroundImageFix" result="effect1_dropShadow"/>
<feBlend mode="normal" in="SourceGraphic" in2="effect1_dropShadow" result="shape"/>
</filter>
</defs>
</svg>
