<svg width="549" height="655" viewBox="0 0 549 655" fill="none" xmlns="http://www.w3.org/2000/svg">
<path d="M375.686 143.825C386.117 136.902 402.372 151.03 409.559 158.962C417.959 168.184 424.733 179.922 429.943 192.007C453.6 246.87 466.034 312.14 446.594 371.588C440.047 391.714 429.833 409.851 416.69 424.689C409.301 432.988 394.094 440.815 391.876 453.509C391.4 456.661 391.588 459.904 392.425 462.947C395.362 474.58 404.228 482.643 411.003 491.112C443.531 531.86 420.012 595.028 385.233 622.25" stroke="white" stroke-width="4.72" stroke-miterlimit="10"/>
<path d="M120.6 357.748C130.757 344.877 143.735 336.179 156.785 328.175C170.916 319.509 184.822 310.784 197.669 299.531C205.49 292.695 212.889 285.198 219.81 277.098" stroke="white" stroke-width="4.72" stroke-miterlimit="10"/>
<path d="M104.112 520.771C91.1334 480.77 87.8394 434.92 101.378 394.965" stroke="white" stroke-width="4.72" stroke-miterlimit="10"/>
<path d="M274.177 107.263V64.3863C274.177 61.4331 273.193 58.6009 271.443 56.5127C269.692 54.4245 267.319 53.2513 264.844 53.2513H145.837C143.361 53.2513 140.988 54.4245 139.237 56.5127C137.487 58.6009 136.504 61.4331 136.504 64.3863V266.009C136.514 268.953 137.501 271.774 139.251 273.852C141 275.931 143.368 277.098 145.837 277.098H264.86C266.015 277.108 267.161 276.846 268.231 276.325" stroke="#222222" stroke-width="4.72" stroke-linecap="round" stroke-linejoin="round"/>
<path d="M261.065 60.0636H149.635C144.702 60.0636 140.703 64.8348 140.703 70.7203V259.668C140.703 265.554 144.702 270.325 149.635 270.325H261.065C265.999 270.325 269.998 265.554 269.998 259.668V70.7203C269.998 64.8348 265.999 60.0636 261.065 60.0636Z" fill="#930BFF"/>
<path d="M259.33 76.3337H152.78C150.312 76.3337 148.311 78.7206 148.311 81.6654V110.368C148.311 113.312 150.312 115.699 152.78 115.699H259.33C261.798 115.699 263.799 113.312 263.799 110.368V81.6654C263.799 78.7206 261.798 76.3337 259.33 76.3337Z" fill="#930BFF"/>
<path d="M205.348 92.9182C207.234 92.9182 208.763 91.0941 208.763 88.8441C208.763 86.5942 207.234 84.77 205.348 84.77C203.462 84.77 201.933 86.5942 201.933 88.8441C201.933 91.0941 203.462 92.9182 205.348 92.9182Z" fill="#222222"/>
<path d="M195.813 107.263C195.813 104.245 196.818 101.351 198.606 99.2175C200.394 97.0842 202.82 95.8855 205.349 95.8855C207.878 95.8855 210.304 97.0842 212.092 99.2175C213.881 101.351 214.885 104.245 214.885 107.263H195.813Z" fill="#222222"/>
<path d="M206.045 157.888C202.407 157.885 198.849 159.17 195.823 161.58C192.797 163.99 190.438 167.417 189.045 171.427C187.651 175.437 187.286 179.85 187.995 184.107C188.705 188.365 190.457 192.277 193.029 195.346C195.602 198.415 198.88 200.505 202.448 201.352C206.017 202.198 209.716 201.762 213.077 200.1C216.438 198.437 219.31 195.623 221.331 192.013C223.351 188.402 224.428 184.158 224.425 179.817C224.424 174.001 222.487 168.425 219.04 164.313C215.594 160.2 210.919 157.889 206.045 157.888ZM206.045 196.454C205.333 196.454 204.65 196.117 204.146 195.516C203.643 194.915 203.36 194.101 203.36 193.251C203.36 192.402 203.643 191.587 204.146 190.986C204.65 190.386 205.333 190.048 206.045 190.048C206.757 190.048 207.44 190.386 207.943 190.986C208.447 191.587 208.73 192.402 208.73 193.251C208.73 194.101 208.447 194.915 207.943 195.516C207.44 196.117 206.757 196.454 206.045 196.454ZM209.449 171.793C208.872 176.549 208.384 181.559 207.214 186.203C206.929 187.304 205.178 187.304 204.892 186.203C204.052 182.725 203.406 179.185 202.96 175.605C202.603 172.985 201.313 168.793 202.548 166.252C203.613 163.999 206.638 163.717 208.384 164.896C210.547 166.37 209.718 169.429 209.449 171.793Z" fill="white"/>
<path d="M206.046 196.454C207.529 196.454 208.731 195.02 208.731 193.251C208.731 191.483 207.529 190.048 206.046 190.048C204.564 190.048 203.362 191.483 203.362 193.251C203.362 195.02 204.564 196.454 206.046 196.454Z" fill="black"/>
<path d="M209.448 171.793C208.872 176.549 208.383 181.559 207.214 186.203C206.928 187.304 205.177 187.304 204.891 186.203C204.051 182.726 203.406 179.186 202.959 175.606C202.602 172.986 201.312 168.794 202.547 166.252C203.612 163.999 206.637 163.717 208.383 164.896C210.546 166.37 209.717 169.429 209.448 171.793Z" fill="black"/>
<path d="M159.864 133.279H249.658" stroke="white" stroke-width="4.72" stroke-miterlimit="10"/>
<path d="M159.864 143.818H249.658" stroke="white" stroke-width="4.72" stroke-miterlimit="10"/>
<path d="M159.864 211.729H249.658" stroke="white" stroke-width="4.72" stroke-miterlimit="10"/>
<path d="M271.518 238.905C271.859 239.219 272.452 106.791 272.452 106.791L238.672 91.2153C238.672 91.2153 213.56 164.647 215.081 165.388L221.861 168.663C221.861 168.663 223.536 167.084 227.417 178.488C231.298 189.891 259.276 227.671 271.518 238.905Z" fill="white"/>
<path d="M180.72 221.704H228.801" stroke="white" stroke-width="4.72" stroke-miterlimit="10"/>
<path d="M406.689 298.49C406.249 304.202 400.342 369.715 406.068 382.507C408.143 387.138 387.545 382.703 386.304 382.363C367.638 377.123 350.158 367.462 333.798 355.711C317.438 343.96 302.982 328.496 285.925 318.075C282.774 316.149 275.796 311.931 277.86 306.409C281.374 297.003 285.689 284.021 286.029 272.539L285.925 257.474C285.925 257.474 283.433 248.016 291.563 256.301C299.694 264.587 336.9 286.431 360.984 261.122C385.069 235.813 386.496 215.796 386.496 215.796C386.496 215.796 371.075 170.772 327.171 198.314L342.681 150.499C342.681 150.499 340.556 147.283 347.276 147.879C353.996 148.475 366.458 144.513 368.001 129.821C368.001 129.821 368.121 125.026 375.231 134.092C382.34 143.157 415.939 178.56 406.689 298.49Z" fill="#222222"/>
<path d="M320.374 128.884C324.141 125.588 328.36 123.099 332.842 121.529" stroke="#222222" stroke-width="4.72" stroke-miterlimit="10"/>
<path d="M303.686 352.436L273.491 482.676L246.041 601.113L228.561 603.078C224.553 603.519 220.828 605.729 218.115 609.275C215.401 612.821 213.895 617.449 213.892 622.25H267.952L307.106 541.737L336.231 481.838L381.765 388.173C383.082 385.441 384.362 382.71 385.608 379.92C385.628 379.888 385.64 379.849 385.641 379.808" stroke="#222222" stroke-width="4.72" stroke-miterlimit="10"/>
<path d="M405.568 308.505C405.979 305.322 406.342 302.138 406.666 298.936C406.666 298.785 406.666 298.654 406.698 298.503C408.546 279.106 408.94 259.551 407.873 240.071C407.881 240.014 407.881 239.957 407.873 239.9C406.666 218.698 403.404 196.428 396.893 174.715C395.003 168.452 392.665 162.395 389.905 156.611C389.701 156.132 389.471 155.661 389.218 155.189C388.351 153.381 387.418 151.619 386.473 149.877C385.194 147.578 383.838 145.345 382.416 143.216C380.296 139.983 377.945 136.976 375.389 134.229C375.373 134.222 375.358 134.211 375.345 134.196C375.333 134.181 375.324 134.164 375.318 134.144C373.419 132.138 371.401 130.299 369.279 128.642C368.883 128.321 368.488 128.02 368.087 127.719C368.025 127.662 367.959 127.611 367.89 127.568" stroke="#222222" stroke-width="4.72" stroke-miterlimit="10"/>
<path d="M336.23 481.838L378.689 622.25H317.421C317.421 617.688 318.809 613.282 321.327 609.849C323.846 606.417 327.323 604.192 331.113 603.589L344.448 601.46C344.448 601.46 326.518 573.295 307.116 541.731" stroke="#222222" stroke-width="4.72" stroke-miterlimit="10"/>
<path d="M343.761 147.179L325.359 203.875C324.803 205.587 323.967 207.15 322.901 208.472C321.834 209.795 320.557 210.851 319.145 211.579C317.733 212.308 316.213 212.694 314.675 212.715C313.137 212.736 311.61 212.392 310.184 211.703L266.594 190.651C266.572 190.58 266.554 190.508 266.539 190.435C265.99 187.815 260.357 162.702 253.527 162.702C248.285 162.702 250.782 175.088 252.978 182.097C253.231 182.85 253.467 183.557 253.681 184.16L253.341 183.99L219.209 167.392L240.736 99.691L282.762 119.059L343.761 147.179Z" fill="#222222"/>
<path d="M253.67 184.16C251.38 177.905 247.735 162.702 253.532 162.702C260.362 162.702 265.989 187.834 266.544 190.435L266.599 190.651L310.184 211.709C311.612 212.398 313.14 212.74 314.681 212.717C316.221 212.694 317.741 212.305 319.154 211.574C320.567 210.842 321.844 209.782 322.91 208.456C323.976 207.13 324.81 205.564 325.364 203.849L345.869 140.642L280.691 110.584L238.671 91.2153L215.064 165.388L253.67 184.16Z" stroke="#222222" stroke-width="4.72" stroke-miterlimit="10"/>
<path d="M388.774 182.568C390.081 209.751 384.991 244.525 355.944 264.993C312.974 295.307 256.103 226.63 235.048 193.304C231.569 187.83 228.631 181.896 226.292 175.619C225.583 173.792 224.988 171.905 224.513 169.973" stroke="#222222" stroke-width="4.72" stroke-miterlimit="10"/>
<path d="M285.545 251.605C285.545 251.605 288.839 280.235 278.683 304.575L278.727 304.509C278.727 304.509 278.727 304.555 278.694 304.575C263.102 339.467 240.78 395.129 253.231 435.575C257.464 449.33 264.76 465.705 273.484 482.683" stroke="#222222" stroke-width="4.72" stroke-miterlimit="10"/>
<path d="M361.149 85.6937L361.182 85.8771C361.446 89.7121 360.423 93.515 358.337 96.4494C356.251 99.3838 353.273 101.21 350.059 101.525C348.002 101.738 345.933 101.307 344.059 100.274C343.522 100.002 343.006 99.6759 342.516 99.298C342.316 99.1316 342.152 98.9096 342.039 98.6515C341.926 98.3928 341.867 98.1059 341.867 97.8144C341.867 97.523 341.926 97.2361 342.039 96.978C342.152 96.7193 342.316 96.4972 342.516 96.3309C344.877 94.3004 347.034 91.4708 347.649 88.1565C347.834 87.1373 347.849 86.0847 347.693 85.0583C347.525 83.7503 347.073 82.5182 346.381 81.484C345.689 80.4497 344.783 79.6493 343.751 79.1633C343.428 79.0493 343.094 78.9852 342.758 78.9734C341.808 78.8817 340.562 79.0258 340.314 79.8642C341.527 75.7999 341.577 71.3708 340.457 67.2685C339.761 64.7305 338.587 62.4161 337.026 60.5025C337.097 61.2439 337.03 61.9948 336.83 62.7019C336.63 63.409 336.302 64.0548 335.869 64.5933C335.436 65.1318 334.909 65.5498 334.325 65.8177C333.741 66.0849 333.115 66.1963 332.491 66.1419C327.655 65.9454 326.743 60.4435 326.743 60.4435C326.743 60.4435 326.743 60.509 326.743 60.5483C324.635 66.8166 318.508 66.9869 314.116 64.2032C312.559 63.2498 311.191 61.9098 310.103 60.2732C308.857 53.8477 313.298 47.6383 318.42 46.7475C318.53 42.6603 321.028 38.2849 324.399 37.9508C325.573 37.831 326.753 38.0894 327.815 38.6988C328.877 39.3083 329.783 40.2466 330.438 41.4158C330.531 41.5926 330.636 41.7826 330.718 41.9791C332.096 39.5949 334.352 36.9814 336.757 36.7391C338.425 36.5994 340.088 37.075 341.522 38.1014C342.956 39.1277 344.09 40.6552 344.772 42.4769C344.772 42.1952 346.886 41.0424 347.1 40.9376C349.074 40.0422 351.242 39.9559 353.262 40.6924C355.281 41.4288 357.039 42.9461 358.256 45.0052C358.378 45.5744 358.459 46.1551 358.497 46.7409C358.618 48.4927 358.393 50.2539 357.839 51.8827C358.619 52.1481 359.348 52.5932 359.985 53.1927C361.364 54.3973 362.29 56.2027 362.56 58.2165C362.587 58.4196 362.604 58.6226 362.615 58.8257C362.725 60.3604 362.45 61.8994 361.824 63.2469C363.448 63.8002 364.922 64.8497 366.102 66.2913C367.281 67.7329 368.125 69.5171 368.55 71.4671C368.683 72.1122 368.774 72.7699 368.819 73.4321C369.006 76.2387 368.331 79.0303 366.92 81.2868C365.509 83.5426 363.457 85.1094 361.149 85.6937Z" fill="#930BFF"/>
<path d="M361.149 85.6936L361.182 85.877C361.446 89.712 360.423 93.5149 358.336 96.4493C356.251 99.3837 353.273 101.21 350.059 101.525C348.001 101.738 345.933 101.307 344.059 100.274C346.419 98.2434 348.577 95.4072 349.186 92.0929C349.402 90.8609 349.378 89.5856 349.117 88.366C348.855 87.1464 348.362 86.0152 347.676 85.0582C347.508 83.7509 347.056 82.5182 346.364 81.4839C345.673 80.4497 344.766 79.6493 343.735 79.1632C343.411 79.0493 343.077 78.9851 342.741 78.9733C343.066 74.8769 342.258 70.7655 340.441 67.2684C339.744 64.7306 338.57 62.4161 337.009 60.5025C337.08 61.2439 337.013 61.9948 336.813 62.7019C336.614 63.409 336.285 64.0548 335.852 64.5933C335.419 65.1318 334.892 65.5497 334.308 65.8176C333.724 66.0849 333.098 66.1962 332.475 66.1418C327.638 65.9453 326.727 60.4435 326.727 60.4435C326.727 60.4435 326.727 60.509 326.727 60.5483C324.618 66.8165 318.492 66.9868 314.1 64.2032C312.542 63.2498 311.173 61.9098 310.086 60.2732C308.84 53.8477 313.282 47.6383 318.404 46.7475C318.514 42.6603 321.012 38.2849 324.382 37.9509C325.557 37.8311 326.736 38.0894 327.798 38.6988C328.861 39.3083 329.766 40.2466 330.421 41.4158C330.515 41.5927 330.619 41.7826 330.701 41.9791C332.079 39.5949 334.336 36.9815 336.74 36.7391C338.411 36.5953 340.078 37.0688 341.515 38.0955C342.952 39.1221 344.089 40.6519 344.772 42.4769C344.772 42.1953 346.886 41.0425 347.1 40.9377C349.074 40.0422 351.242 39.9559 353.261 40.6924C355.281 41.4288 357.038 42.9461 358.256 45.0052C358.378 45.5744 358.458 46.1551 358.497 46.7409C358.618 48.4927 358.392 50.2539 357.838 51.8827C358.619 52.1482 359.348 52.5932 359.985 53.1927C359.884 54.0925 359.687 54.973 359.398 55.8127C360.615 56.2381 361.71 57.059 362.56 58.1838C362.587 58.3868 362.604 58.5899 362.615 58.7929C362.725 60.3276 362.449 61.8667 361.824 63.2142C362.641 63.4922 363.423 63.8974 364.152 64.4194C364.033 65.377 363.773 66.3017 363.383 67.1505C365.459 67.8475 367.278 69.3559 368.549 71.4342C368.683 72.0794 368.773 72.737 368.818 73.3992C369.013 76.2112 368.341 79.0113 366.929 81.2743C365.517 83.5373 363.462 85.1087 361.149 85.6936Z" fill="#930BFF"/>
<path d="M318.486 72.5674C318.486 72.5674 325.448 72.6853 327.045 79.6938" stroke="#222222" stroke-width="4.72" stroke-miterlimit="10"/>
<path d="M316.69 93.5668C315.106 94.0332 313.461 94.1288 311.847 93.8485C311.544 93.7862 311.258 93.6375 311.013 93.4148C310.769 93.1915 310.573 92.9013 310.442 92.5686C310.313 92.2358 310.252 91.8703 310.266 91.5035C310.28 91.1367 310.369 90.7791 310.524 90.4621C311.974 87.5342 313.467 84.6391 315.092 81.8554C315.347 81.501 315.504 81.0622 315.542 80.5978C315.542 80.5978 314.872 71.9321 316.338 65.2838" stroke="#222222" stroke-width="4.72" stroke-miterlimit="10"/>
<path d="M322.168 79.9414C322.315 78.5449 321.627 77.2919 320.632 77.1426C319.636 76.9932 318.709 78.0039 318.562 79.3997C318.415 80.7961 319.103 82.0492 320.099 82.1985C321.094 82.3478 322.021 81.3372 322.168 79.9414Z" fill="#222222"/>
<path d="M355.059 99.6844C355.207 101.42 361.735 113.439 367.637 126.71C367.634 126.732 367.634 126.754 367.637 126.775C367.746 127.057 367.856 127.358 367.982 127.659" stroke="#222222" stroke-width="4.72" stroke-linecap="round" stroke-linejoin="round"/>
<path d="M331.515 112.391L333.568 129.828" stroke="#222222" stroke-width="4.72" stroke-miterlimit="10"/>
<path d="M314.176 94.0056C314.176 94.0056 317.152 111.271 324.47 113.885C331.788 116.498 338.14 105.606 338.14 105.606" stroke="#222222" stroke-width="4.72" stroke-linecap="round" stroke-linejoin="round"/>
<path d="M316.175 101.794C317.147 102.471 318.246 102.849 319.371 102.893C320.497 102.936 321.613 102.644 322.62 102.042" stroke="#222222" stroke-width="4.72" stroke-linecap="round" stroke-linejoin="round"/>
<path d="M329.917 41.1927C329.829 39.8534 329.451 38.5643 328.819 37.4527C328.014 35.9797 326.819 34.871 325.425 34.3038C324.03 33.7366 322.516 33.7435 321.125 34.3237C319.734 34.9037 318.546 36.0234 317.751 37.5038C316.957 38.9841 316.601 40.7395 316.741 42.4896" stroke="#222222" stroke-width="4.72" stroke-miterlimit="10" stroke-linecap="round"/>
<path d="M327.084 53.1139C326.946 51.2218 326.424 49.3983 325.563 47.8007C324.702 46.2031 323.529 44.8794 322.143 43.9439C315.165 39.2868 306.222 48.3324 308.72 57.2928C309.598 60.4106 311.69 62.6769 314.073 64.1834C318.465 66.9672 324.613 66.8034 326.7 60.5285L326.733 60.4302C326.733 60.4302 327.644 65.9257 332.481 66.1288C333.105 66.1812 333.732 66.0692 334.316 65.8013C334.9 65.5327 335.428 65.1143 335.862 64.5756C336.296 64.0369 336.624 63.3911 336.826 62.6837C337.027 61.9765 337.096 61.225 337.026 60.4826C341.188 65.5917 342.275 73.229 340.32 79.851C340.677 78.6589 343.065 78.8751 343.757 79.1502C346.733 80.3881 348.319 84.5867 347.66 88.1499C347.04 91.4838 344.883 94.3003 342.533 96.3439C342.332 96.5096 342.169 96.731 342.056 96.9885C341.943 97.2465 341.883 97.5334 341.883 97.8242C341.883 98.1151 341.943 98.4019 342.056 98.6594C342.169 98.9174 342.332 99.1388 342.533 99.3045C344.77 101.02 347.421 101.803 350.071 101.532C353.284 101.216 356.261 99.391 358.346 96.4579C360.432 93.5248 361.456 89.7238 361.193 85.8901L361.16 85.7067C363.281 85.1768 365.193 83.8151 366.589 81.8383C367.986 79.8615 368.788 77.3836 368.867 74.8003C368.945 72.217 368.297 69.6763 367.025 67.5829C365.753 65.4904 363.93 63.9661 361.847 63.2533C362.472 61.9058 362.747 60.3668 362.637 58.832C362.486 56.75 361.651 54.8238 360.314 53.4739C358.976 52.124 357.246 51.4601 355.5 51.627" stroke="#222222" stroke-width="4.72" stroke-linecap="round" stroke-linejoin="round"/>
<path d="M329.636 37.1385C330.954 34.5185 332.409 33.0513 335.126 32.7828C336.812 32.6184 338.499 33.0869 339.951 34.1228C341.403 35.1586 342.547 36.71 343.224 38.5599C343.131 38.3044 345.338 37.1058 345.563 37.001C346.443 36.5996 347.368 36.3568 348.308 36.2805C350.814 36.1195 353.277 37.1198 355.18 39.0724C357.084 41.025 358.282 43.7793 358.525 46.7605C358.645 48.5123 358.42 50.2734 357.866 51.9022" stroke="#222222" stroke-width="4.72" stroke-linecap="square" stroke-linejoin="round"/>
<path d="M367.638 126.716C367.638 126.716 372.765 147.061 343.449 148.161" stroke="#222222" stroke-width="4.72" stroke-miterlimit="10"/>
<path d="M215.208 330.546C215.159 315.671 227.412 311.669 233.281 311.8C269.652 312.625 275.137 242.448 275.137 242.448" stroke="#222222" stroke-width="4.72" stroke-linecap="round" stroke-linejoin="round"/>
<path d="M405.568 308.505C405.568 308.505 401.275 359.032 405.568 376.036C409.861 393.039 385.173 379.697 385.173 379.697" stroke="#222222" stroke-width="4.72" stroke-miterlimit="10"/>
<path d="M159.599 346.587H131.057" stroke="#222222" stroke-width="4.72" stroke-linecap="round" stroke-linejoin="round"/>
<path d="M261.868 346.587H207.254" stroke="#222222" stroke-width="4.72" stroke-linecap="round" stroke-linejoin="round"/>
<path d="M199.42 346.587H167.177" stroke="#222222" stroke-width="4.72" stroke-linecap="round" stroke-linejoin="round"/>
<path d="M198.59 330.546H166.709" stroke="#222222" stroke-width="4.72" stroke-linecap="round" stroke-linejoin="round"/>
<path d="M223.991 330.546H206.78" stroke="#222222" stroke-width="4.72" stroke-linecap="round" stroke-linejoin="round"/>
<path d="M267.742 330.546H234.5" stroke="#222222" stroke-width="4.72" stroke-linecap="round" stroke-linejoin="round"/>
<path d="M158.743 330.546H153.104" stroke="#222222" stroke-width="4.72" stroke-linecap="round" stroke-linejoin="round"/>
<path d="M197.535 329.105H204.908C204.908 329.105 213.357 338.622 204.908 349.515V357.126H197.535" stroke="#222222" stroke-width="4.72" stroke-linecap="round" stroke-linejoin="round"/>
<path d="M165.069 329.105C165.069 329.105 173.518 338.622 165.069 349.515V357.126" stroke="#222222" stroke-width="4.72" stroke-linecap="round" stroke-linejoin="round"/>
<path d="M165.067 357.126H157.694V349.515C166.148 338.622 157.694 329.105 157.694 329.105H165.067" stroke="#222222" stroke-width="4.72" stroke-linecap="round" stroke-linejoin="round"/>
<path d="M197.535 329.105C197.535 329.105 205.99 338.622 197.535 349.515V357.126" stroke="#222222" stroke-width="4.72" stroke-linecap="round" stroke-linejoin="round"/>
<path d="M157.694 349.515H165.067" stroke="#222222" stroke-width="4.72" stroke-linecap="round" stroke-linejoin="round"/>
<path d="M197.535 349.515H204.908" stroke="#222222" stroke-width="4.72" stroke-linecap="round" stroke-linejoin="round"/>
<path d="M225.958 325.686C225.016 327.118 224.346 328.776 223.993 330.546C223.526 333.16 223.351 335.836 223.471 338.504C223.504 341.124 223.778 343.809 225.865 345.185C228.999 347.274 232.766 344.288 232.93 340.004C233.11 336.784 233.637 333.605 234.5 330.546C234.533 330.395 234.572 330.264 234.605 330.14" stroke="#222222" stroke-width="4.72" stroke-linecap="round" stroke-linejoin="round"/>
<path d="M234.603 330.12C237.216 329.465 241.109 327.756 243.091 323.347" stroke="#222222" stroke-width="4.72" stroke-linecap="round" stroke-linejoin="round"/>
<path d="M216.774 346.587C216.774 346.587 218.827 353.045 223.993 353.831C229.159 354.617 225.893 346.587 225.893 346.587C225.893 346.587 228.034 352.246 230.625 352.436C233.217 352.626 235.456 349.816 234.562 346.587C234.562 346.587 235.352 351.781 239.184 351.211C243.016 350.641 241.435 346.587 241.435 346.587" stroke="#222222" stroke-width="4.72" stroke-linecap="round" stroke-linejoin="round"/>
<g opacity="0.54">
<path opacity="0.54" d="M157.842 438.582L154.137 502.431C152.127 506.767 149.865 510.605 147.851 512.976C147.582 512.859 147.302 512.741 147.044 512.597C146.549 512.393 146.061 512.158 145.594 511.942C138.084 508.012 132.418 500.695 130.716 492.436C129.223 485.172 130.574 477.325 127.675 470.5C124.139 462.096 114.499 456.823 113.341 447.332C112.243 438.457 118.935 430.302 117.853 421.617C116.602 411.792 106.489 405.949 104.6 396.341C103.42 390.367 104.474 383.516 104.051 377.346C103.551 370.471 102.576 363.658 101.136 356.975C116.064 355.665 131.26 365.49 136.097 379.553C140.049 391.061 137.667 404.508 143.854 414.995C147.214 420.674 152.814 424.918 155.707 430.866C156.598 432.719 157.245 434.724 157.623 436.813C157.65 436.957 157.65 437.108 157.672 437.219C157.7 437.455 157.722 437.632 157.744 437.809C157.793 438.319 157.842 438.582 157.842 438.582Z" fill="#930BFF"/>
<path opacity="0.54" d="M157.871 438.555H157.843C157.843 438.555 157.793 438.293 157.743 437.796C157.79 437.997 157.824 438.203 157.843 438.411C157.871 438.464 157.871 438.523 157.871 438.555Z" fill="#930BFF"/>
</g>
<path d="M207.188 413.659C205.222 421.944 194.67 426.981 193.391 435.477C192.26 443.003 199.233 450.031 198.08 457.675C196.855 465.882 186.836 470.421 183.158 477.685C180.16 483.58 181.56 490.333 180.012 496.601C178.222 503.721 172.326 510.075 164.448 513.441C163.959 513.651 163.493 513.854 162.999 514.031C162.73 514.116 162.45 514.234 162.164 514.319C159.562 511.771 156.592 507.291 154.16 502.457L157.865 438.608H157.893C160.764 435.706 164.053 433.04 166.336 429.818C168.818 426.333 169.971 422.527 170.728 418.545H170.739V418.106C171.837 411.805 171.92 405.216 174.401 399.242C179.43 387.085 195.214 378.623 210.756 379.736C209.291 385.476 208.287 391.369 207.759 397.336C207.308 402.615 208.417 408.53 207.188 413.659Z" fill="#930BFF"/>
<path d="M170.741 418.054V418.493H170.668C170.707 418.342 170.741 418.198 170.741 418.054Z" fill="#930BFF"/>
<path d="M170.739 418.054C170.739 418.198 170.69 418.342 170.668 418.493C169.932 422.475 168.779 426.281 166.276 429.765C163.992 432.988 160.704 435.66 157.832 438.555C157.832 438.555 157.832 438.464 157.805 438.437C157.786 438.23 157.753 438.023 157.706 437.822C157.706 437.645 157.662 437.468 157.635 437.232C157.635 437.121 157.635 436.97 157.585 436.826C157.208 434.738 156.561 432.732 155.669 430.879C152.776 424.931 147.176 420.687 143.816 415.008C143.816 415.008 145.337 385.074 158.173 375.963C170.366 367.35 170.739 413.069 170.739 418.054Z" fill="#930BFF"/>
<path d="M170.741 418.054V418.493H170.668C170.707 418.342 170.741 418.198 170.741 418.054Z" fill="#930BFF"/>
<path d="M157.842 438.437V438.581C157.842 438.581 157.793 438.319 157.743 437.822C157.79 438.023 157.823 438.229 157.842 438.437Z" fill="#930BFF"/>
<path d="M156.702 438.588C159.562 435.68 162.878 432.981 165.173 429.765C171.607 420.7 169.131 409.12 173.26 399.183C178.283 387.039 194.122 378.577 209.625 379.69C208.147 385.427 207.139 391.321 206.617 397.29C206.156 402.602 207.259 408.523 206.068 413.665C204.091 421.944 193.545 426.968 192.26 435.47C191.124 442.99 198.113 450.018 196.954 457.662C195.725 465.869 185.716 470.401 182.027 477.665C179.024 483.56 180.435 490.313 178.876 496.595C176.987 504.167 170.438 510.861 161.857 514.011C161.582 514.123 161.308 514.234 161.011 514.319C158.409 511.771 155.439 507.297 153.001 502.457" stroke="#222222" stroke-width="4.72" stroke-miterlimit="10"/>
<path d="M200.138 389.214C176.975 418.958 166.1 481.674 161.845 514.024C161.499 516.756 161.186 519.264 160.917 521.504" stroke="#222222" stroke-width="4.72" stroke-miterlimit="10"/>
<path d="M202.272 539.72L191.6 614.744C191.348 616.8 190.492 618.684 189.185 620.058C187.879 621.433 186.205 622.21 184.463 622.25H128.816C127.06 622.204 125.375 621.41 124.066 620.012C122.757 618.614 121.911 616.703 121.679 614.626L111.852 539.72H202.272Z" stroke="#222222" stroke-width="4.72" stroke-miterlimit="10"/>
<path d="M212.397 531.362C212.095 536.091 208.955 539.733 205.189 539.733H109.114C105.386 539.733 102.274 536.17 101.917 531.493C101.505 526.148 104.848 521.518 109.114 521.518H205.189C209.416 521.518 212.743 526.057 212.397 531.362Z" stroke="#222222" stroke-width="4.72" stroke-miterlimit="10"/>
<path d="M146.71 512.99C150.833 508.103 155.878 497.23 158.118 488.342C159.957 481.012 156.713 473.473 155.972 465.961C154.808 454.171 159.71 441.536 154.544 430.872C151.667 424.925 146.068 420.693 142.708 414.995C136.515 404.515 138.892 391.087 134.934 379.579C130.114 365.49 114.917 355.698 99.9956 356.975C101.422 363.667 102.388 370.486 102.883 377.365C103.328 383.516 102.263 390.367 103.432 396.36C105.326 405.969 115.45 411.785 116.691 421.63C117.789 430.335 111.08 438.477 112.183 447.339C113.369 456.843 122.971 462.096 126.523 470.513C129.406 477.351 128.055 485.185 129.554 492.442C131.431 501.507 138.074 509.472 146.71 512.99Z" stroke="#222222" stroke-width="4.72" stroke-miterlimit="10"/>
<path d="M109.103 368.018C131.338 402.471 141.801 475.111 145.886 512.61C146.237 515.885 146.55 518.839 146.797 521.505" stroke="#222222" stroke-width="4.72" stroke-miterlimit="10"/>
<path d="M142.708 414.995C142.708 414.995 144.234 385.061 157.064 375.957C169.894 366.852 169.641 417.89 169.641 417.89" stroke="#222222" stroke-width="4.72" stroke-miterlimit="10"/>
<path d="M156.701 438.588C156.701 438.588 154.076 421.46 158.672 404.626" stroke="#222222" stroke-width="4.72" stroke-miterlimit="10"/>
<path d="M452.008 346.587H403.976" stroke="#222222" stroke-width="4.72" stroke-linecap="round" stroke-linejoin="round"/>
<path d="M452.788 330.546H405.514" stroke="#222222" stroke-width="4.72" stroke-linecap="round" stroke-linejoin="round"/>
<path d="M115.745 622.25H421.637" stroke="#222222" stroke-width="4.72" stroke-miterlimit="10"/>
</svg>
